<svg width="98" height="50" viewBox="0 0 98 50" fill="none" xmlns="http://www.w3.org/2000/svg">
<path d="M96.7502 0.75C81.1533 2.04974 80.1874 33.1664 64.7502 36.75C52.0204 39.7051 45.5743 22.9304 32.7502 24.75C18.8405 26.7237 14.3893 44.2036 0.750214 48.75H96.7502V0.75Z" fill="#ECFDF3"/>
<path d="M96.7502 0.75C81.1533 2.04974 80.1874 33.1664 64.7502 36.75C52.0204 39.7051 45.5743 22.9304 32.7502 24.75C18.8405 26.7237 14.3893 44.2036 0.750214 48.75H96.7502V0.75Z" fill="url(#paint0_linear_8033_18223)"/>
<path d="M0.750214 48.75C14.3893 44.2036 18.8405 26.7237 32.7502 24.75C45.5743 22.9304 52.0204 39.7051 64.7502 36.75C80.1874 33.1664 81.1533 2.04974 96.7502 0.75" stroke="#50D01E" stroke-width="1.5" stroke-linecap="round" stroke-linejoin="round"/>
<defs>
<linearGradient id="paint0_linear_8033_18223" x1="48.7502" y1="0.75" x2="48.7502" y2="48.75" gradientUnits="userSpaceOnUse">
<stop offset="0.641167" stop-color="white" stop-opacity="0"/>
<stop offset="1" stop-color="white"/>
</linearGradient>
</defs>
</svg>
