<svg width="24" height="24" viewBox="0 0 24 24" fill="none" xmlns="http://www.w3.org/2000/svg">
<path d="M0 6C0 2.68629 2.68629 0 6 0H18C21.3137 0 24 2.68629 24 6V18C24 21.3137 21.3137 24 18 24H6C2.68629 24 0 21.3137 0 18V6Z" fill="#18181B"/>
<path d="M8.66663 5.33337H15.3333" stroke="#09090B" stroke-linecap="round" stroke-linejoin="round"/>
<path d="M7.33337 8H16.6667" stroke="#09090B" stroke-linecap="round" stroke-linejoin="round"/>
<path d="M16.6667 10.6666H7.33333C6.59695 10.6666 6 11.2636 6 12V17.3333C6 18.0697 6.59695 18.6666 7.33333 18.6666H16.6667C17.403 18.6666 18 18.0697 18 17.3333V12C18 11.2636 17.403 10.6666 16.6667 10.6666Z" stroke="#09090B" stroke-linecap="round" stroke-linejoin="round"/>
</svg>
