<svg width="38" height="38" viewBox="0 0 38 38" fill="none" xmlns="http://www.w3.org/2000/svg">
<path d="M20.2649 3.11133C22.0149 3.11599 22.9031 3.12533 23.67 3.14711L23.9718 3.15799C24.3203 3.17044 24.664 3.18599 25.0794 3.20466C26.7345 3.28244 27.8638 3.54377 28.8547 3.92799C29.8814 4.32311 30.7463 4.85822 31.6111 5.72155C32.4024 6.49891 33.0145 7.43962 33.4047 8.47799C33.7889 9.46888 34.0503 10.5982 34.128 12.2549C34.1467 12.6687 34.1623 13.0124 34.1747 13.3624L34.184 13.6642C34.2074 14.4296 34.2167 15.3178 34.2198 17.0678L34.2214 18.2282V20.266C34.2252 21.4006 34.2132 22.5353 34.1856 23.6695L34.1763 23.9713C34.1638 24.3213 34.1483 24.6651 34.1296 25.0789C34.0518 26.7355 33.7874 27.8633 33.4047 28.8558C33.0145 29.8941 32.4024 30.8349 31.6111 31.6122C30.8338 32.4035 29.8931 33.0156 28.8547 33.4058C27.8638 33.79 26.7345 34.0513 25.0794 34.1291L23.9718 34.1758L23.67 34.1851C22.9031 34.2069 22.0149 34.2178 20.2649 34.2209L19.1045 34.2224H17.0683C15.9331 34.2264 14.798 34.2145 13.6631 34.1867L13.3614 34.1773C12.9921 34.1633 12.6229 34.1473 12.2538 34.1291C10.5987 34.0513 9.46937 33.79 8.47693 33.4058C7.43911 33.0154 6.49895 32.4033 5.72204 31.6122C4.93017 30.835 4.31754 29.8943 3.92693 28.8558C3.5427 27.8649 3.28137 26.7355 3.20359 25.0789L3.15693 23.9713L3.14915 23.6695C3.12047 22.5353 3.10751 21.4006 3.11026 20.266V17.0678C3.10595 15.9332 3.11736 14.7985 3.14448 13.6642L3.15537 13.3624C3.16782 13.0124 3.18337 12.6687 3.20204 12.2549C3.27982 10.5982 3.54115 9.47044 3.92537 8.47799C4.3169 7.43919 4.93061 6.49845 5.72359 5.72155C6.50005 4.93063 7.43966 4.31855 8.47693 3.92799C9.46937 3.54377 10.5971 3.28244 12.2538 3.20466C12.6676 3.18599 13.0129 3.17044 13.3614 3.15799L13.6631 3.14866C14.7974 3.12102 15.9321 3.1091 17.0667 3.11288L20.2649 3.11133ZM18.6658 10.8891C16.603 10.8891 14.6247 11.7085 13.1661 13.1672C11.7075 14.6258 10.888 16.6041 10.888 18.6669C10.888 20.7297 11.7075 22.708 13.1661 24.1666C14.6247 25.6252 16.603 26.4447 18.6658 26.4447C20.7286 26.4447 22.7069 25.6252 24.1655 24.1666C25.6241 22.708 26.4436 20.7297 26.4436 18.6669C26.4436 16.6041 25.6241 14.6258 24.1655 13.1672C22.7069 11.7085 20.7286 10.8891 18.6658 10.8891ZM18.6658 14.0002C19.2786 14.0001 19.8855 14.1207 20.4517 14.3551C21.018 14.5896 21.5325 14.9332 21.9659 15.3665C22.3993 15.7998 22.7431 16.3142 22.9777 16.8803C23.2123 17.4465 23.3332 18.0533 23.3333 18.6661C23.3334 19.2789 23.2128 19.8858 22.9783 20.452C22.7439 21.0182 22.4002 21.5328 21.967 21.9662C21.5337 22.3996 21.0193 22.7434 20.4532 22.978C19.887 23.2126 19.2802 23.3334 18.6674 23.3336C17.4297 23.3336 16.2427 22.8419 15.3675 21.9667C14.4924 21.0915 14.0007 19.9046 14.0007 18.6669C14.0007 17.4292 14.4924 16.2422 15.3675 15.3671C16.2427 14.4919 17.4297 14.0002 18.6674 14.0002M26.834 8.55577C26.3183 8.55577 25.8238 8.76063 25.4591 9.12529C25.0945 9.48994 24.8896 9.98452 24.8896 10.5002C24.8896 11.0159 25.0945 11.5105 25.4591 11.8751C25.8238 12.2398 26.3183 12.4447 26.834 12.4447C27.3497 12.4447 27.8443 12.2398 28.209 11.8751C28.5736 11.5105 28.7785 11.0159 28.7785 10.5002C28.7785 9.98452 28.5736 9.48994 28.209 9.12529C27.8443 8.76063 27.3497 8.55577 26.834 8.55577Z" fill="white"/>
</svg>
