<svg width="179" height="64" viewBox="0 0 179 64" fill="none" xmlns="http://www.w3.org/2000/svg">
<g clip-path="url(#clip0_534_82)">
<path fill-rule="evenodd" clip-rule="evenodd" d="M60.604 26.2645C60.9514 26.1863 61.2613 26.4605 61.1372 26.7446L55.1082 40.4074C54.922 40.8227 54.4381 40.8415 54.2274 40.4431C54.2274 40.4431 52.4035 35.6793 50.8034 32.8049C50.1219 31.6136 49.2967 30.5104 48.347 29.5198C48.2351 29.3164 48.4091 29.005 48.6696 28.9467L60.604 26.2645Z" fill="#4807EC"/>
<path fill-rule="evenodd" clip-rule="evenodd" d="M50.3844 0C50.3844 0 50.1488 2.25913 51.2529 3.48732C52.4684 4.83459 55.0616 5.04177 55.0616 5.04177C55.0616 5.04177 52.4684 4.71177 51.1782 5.88288C49.7021 7.21526 49.4662 10.2386 49.4662 10.2386C49.4662 10.2386 49.8634 7.71772 48.7467 6.39898C47.5683 4.98595 44.9258 4.64105 44.9258 4.64105C44.9258 4.64105 47.4691 4.69936 48.9578 3.40294C50.1982 2.33354 50.3844 0 50.3844 0Z" fill="#ECC607"/>
<path fill-rule="evenodd" clip-rule="evenodd" d="M40.1292 12.4834C40.1292 12.4834 40.0671 13.0603 40.3648 13.3741C40.6751 13.719 41.3574 13.7736 41.3574 13.7736C41.3574 13.7736 40.6747 13.688 40.3399 13.9857C39.9553 14.3256 39.8932 15.0973 39.8932 15.0973C39.8932 15.0973 40.0051 14.4534 39.707 14.116C39.3971 13.755 38.7148 13.6657 38.7148 13.6657C38.7148 13.6657 39.3722 13.6818 39.7691 13.3518C40.0794 13.0789 40.1292 12.4834 40.1292 12.4834Z" fill="#ECC607"/>
<path fill-rule="evenodd" clip-rule="evenodd" d="M49.68 20.8281C49.68 20.8281 49.6179 21.405 49.9156 21.7188C50.2259 22.0637 50.9082 22.1183 50.9082 22.1183C50.9082 22.1183 50.2259 22.0327 49.8911 22.3305C49.5065 22.6704 49.4444 23.442 49.4444 23.442C49.4444 23.442 49.5559 22.7982 49.2582 22.4607C48.9479 22.0997 48.2656 22.0092 48.2656 22.0092C48.2656 22.0092 48.9234 22.0265 49.3203 21.6966C49.6302 21.4236 49.68 20.8281 49.68 20.8281Z" fill="#ECC607"/>
<path fill-rule="evenodd" clip-rule="evenodd" d="M56.2671 14.0049C56.2671 14.0049 56.143 15.1301 56.7012 15.743C57.2969 16.4141 58.5871 16.5159 58.5871 16.5159C58.5871 16.5159 57.2969 16.3521 56.6517 16.9364C55.9323 17.6014 55.8082 19.1074 55.8082 19.1074C55.8082 19.1074 56.0066 17.852 55.4485 17.1945C54.8654 16.4911 53.5625 16.3199 53.5625 16.3199C53.5625 16.3199 54.8156 16.3484 55.5599 15.7008C56.1679 15.1673 56.2671 14.0049 56.2671 14.0049Z" fill="#ECC607"/>
<path fill-rule="evenodd" clip-rule="evenodd" d="M47.9958 11.8438C47.9958 11.8438 47.9211 12.5844 48.2934 12.9888C48.7026 13.4329 49.571 13.5024 49.571 13.5024C49.571 13.5024 48.7026 13.392 48.2685 13.7754C47.7847 14.212 47.6977 15.2045 47.6977 15.2045C47.6977 15.2045 47.8341 14.377 47.4621 13.9428C47.0649 13.4776 46.1719 13.3622 46.1719 13.3622C46.1719 13.3622 47.0277 13.3833 47.5242 12.959C47.946 12.6092 47.9958 11.8438 47.9958 11.8438Z" fill="#ECC607"/>
<path fill-rule="evenodd" clip-rule="evenodd" d="M27.6271 7.03512C27.6271 7.03512 36.8819 15.7143 44.1392 25.2978C49.8833 32.8853 54.0022 41.8473 54.0022 41.8473C54.1758 42.0783 54.1137 42.4442 53.8655 42.666L30.3813 63.6321C30.2811 63.7156 30.1559 63.7631 30.0257 63.7677C29.8954 63.7723 29.7673 63.7332 29.6616 63.657C29.6616 63.657 23.1734 55.1999 14.8862 48.7663C8.90657 44.1225 0.346452 40.9057 0.346452 40.9057C0.011492 40.6402 -0.100161 40.2146 0.0983333 39.9568L26.5106 6.92593C26.8083 6.5612 27.3046 6.61081 27.6271 7.03512Z" fill="#4807EC"/>
<path d="M144.001 38.633C147.204 38.633 149.191 40.0424 150.28 41.1955C150.889 41.8682 151.081 42.765 150.792 43.5983C150.504 44.4311 149.8 45.0395 148.902 45.2318L148.838 45.2639C146.756 45.2639 146.019 43.6622 144.001 43.6622C143.649 43.6622 141.919 43.7262 141.919 44.7192C141.919 48.0509 152.939 43.8546 152.939 51.3827C152.939 52.6319 151.914 56.9888 144.642 56.9888C138.267 56.9888 137.21 52.9208 137.114 52.6001C136.825 51.3505 137.626 49.6852 139.292 49.6848C141.758 49.6848 140.51 51.9592 144.642 51.9592C145.667 51.9592 147.589 52.0872 147.589 51.1264C147.589 48.2754 136.537 51.0942 136.537 44.7192C136.537 41.1316 139.612 38.633 144.001 38.633ZM111.628 38.8893C113.422 38.8893 114.864 40.3309 114.864 42.0927V53.3686C114.864 55.1308 113.422 56.5724 111.628 56.5724C109.866 56.5724 108.425 55.1308 108.425 53.3686V42.0927C108.425 40.3309 109.866 38.8893 111.628 38.8893ZM131.112 32.1297C132.906 32.1297 134.348 33.5715 134.348 35.3654V53.3686C134.348 55.1308 132.906 56.5724 131.112 56.5724C130.375 56.5724 129.638 56.3161 129.094 55.8357C127.973 56.3161 126.787 56.5724 125.57 56.5724C120.765 56.5724 116.824 52.6319 116.824 47.8268C116.824 41.7721 121.95 39.0495 125.57 39.0495C126.371 39.0495 127.172 39.1774 127.908 39.3693V35.3654C127.908 33.5715 129.35 32.1298 131.112 32.1297ZM92.3656 32.0658C94.2236 32.0658 95.7609 33.5714 95.7609 35.4294V38.4729L100.598 33.1548C100.641 33.108 100.684 33.0627 100.729 33.019L100.773 33.3437C100.906 34.3275 101.82 35.0234 102.804 34.8903C103.806 34.7547 104.501 33.8411 104.368 32.8574L104.29 32.2801C104.68 32.4243 105.05 32.6413 105.371 32.9307C106.749 34.18 106.845 36.3261 105.596 37.7036L100.054 43.7584L105.756 51.0942C106.301 51.7991 106.557 52.6963 106.429 53.5931C106.236 55.2909 104.795 56.5402 103.097 56.5402C102.04 56.5402 101.079 56.0598 100.438 55.227L95.7609 49.2362V53.1763C95.7609 55.0343 94.2236 56.5402 92.3656 56.5402C90.5076 56.5402 89.0021 55.0346 89.0021 53.1763V35.4294C89.0021 33.5714 90.5076 32.0658 92.3656 32.0658ZM125.57 45.488C124.257 45.488 123.264 46.5454 123.263 47.8268C123.263 49.1079 124.288 50.1334 125.57 50.1334C126.851 50.1334 127.908 49.1082 127.908 47.8268C127.908 46.5454 126.851 45.488 125.57 45.488ZM114.21 32.8428C114.717 33.4166 115.024 34.1679 115.024 34.9808C115.024 36.7748 113.582 38.2161 111.788 38.2161C109.995 38.2161 108.553 36.7748 108.553 34.9808C108.553 34.2932 108.773 33.6498 109.148 33.1204C110.025 33.5852 111.048 33.7925 112.1 33.6501C112.883 33.5442 113.598 33.259 114.21 32.8428ZM103.443 22.3882C104.311 22.2707 105.118 22.8852 105.238 23.7695C105.355 24.6379 104.741 25.4446 103.872 25.5622C103.541 25.6071 103.358 25.6803 103.315 25.7182C103.301 25.7361 103.305 25.7677 103.296 25.817L103.975 25.7253C104.638 25.6355 105.248 26.0996 105.338 26.7627C105.428 27.426 104.963 28.0359 104.3 28.1256L103.574 28.2237L104.128 32.4724C104.245 33.3408 103.631 34.1476 102.747 34.2674C101.878 34.385 101.071 33.7704 100.954 32.9019L100.4 28.6535L100.037 28.7025C99.3734 28.7922 98.7639 28.3282 98.6739 27.6651C98.5843 27.0019 99.0482 26.392 99.7113 26.3022L100.106 26.2487C99.9829 24.0304 101.232 22.6875 103.443 22.3882ZM110.871 24.3752C113.963 23.9568 115.481 26.4084 115.704 28.0549C116.02 30.3849 114.368 32.5541 112.022 32.8716C109.692 33.1869 107.523 31.5349 107.207 29.2049C106.89 26.8595 108.542 24.6906 110.871 24.3752ZM121.626 22.6112C122.64 22.4739 123.929 22.7787 124.705 23.4593C124.987 23.7122 125.152 24.0682 125.175 24.4578C125.199 24.8475 125.074 25.2136 124.809 25.5113C124.556 25.7928 124.2 25.9576 123.81 25.9812C123.435 26.0029 122.737 25.8798 122.454 25.6127C122.322 25.4996 122.186 25.4597 122.014 25.4829C121.443 25.5603 121.049 26.0936 121.127 26.6651L121.462 29.1368C121.568 29.9227 121.012 30.6525 120.212 30.7609C119.426 30.8672 118.696 30.3114 118.59 29.5256L117.92 24.582C117.812 23.782 118.368 23.0521 119.154 22.9457C119.497 22.8993 119.829 22.9855 120.113 23.1507C120.569 22.8706 121.097 22.6828 121.626 22.6112ZM112.582 28.4776C112.475 27.6855 112.087 27.3899 111.294 27.4971C110.673 27.5812 110.246 28.1613 110.33 28.7825C110.414 29.4038 110.978 29.8334 111.599 29.7493C112.221 29.6651 112.666 29.0989 112.582 28.4776ZM129.504 11.5731C130.639 11.6152 131.544 12.5828 131.544 13.7396V22.3C131.565 22.7416 131.523 25.0554 129.882 26.738C128.852 27.7897 127.442 28.3366 125.802 28.3366C124.267 28.3366 122.941 27.8109 121.953 26.7803C121.785 26.6122 121.651 26.4159 121.554 26.2034C121.72 26.0834 121.916 26.0013 122.134 25.9719C122.348 25.9429 122.519 25.9927 122.684 26.1343C123.038 26.4686 123.515 26.6227 123.985 26.5955C124.472 26.5659 124.918 26.3598 125.235 26.0074C125.567 25.6346 125.723 25.1761 125.694 24.6883C125.682 24.4888 125.639 24.2965 125.57 24.117C125.643 24.1246 125.72 24.1297 125.802 24.1297C126.285 24.1297 126.622 24.0247 126.832 23.7934C127.064 23.5831 127.19 23.2043 127.274 22.8888C126.79 23.015 126.307 23.0781 125.802 23.0781C125.249 23.0781 124.717 22.9912 124.216 22.8249C123.996 22.709 123.767 22.6135 123.533 22.5383C122.956 22.2423 122.436 21.8297 121.994 21.3116C120.985 20.1337 120.48 18.5561 120.459 16.5791V13.6973C120.459 12.4984 121.427 11.5731 122.625 11.5731C123.761 11.6152 124.687 12.5827 124.687 13.7396V16.4949C124.687 17.6307 124.981 18.8507 125.802 18.8507C126.643 18.8506 127.316 18.1775 127.337 17.3363V13.6973C127.337 12.4774 128.305 11.5731 129.504 11.5731ZM90.9673 7.87126C92.1449 7.87129 93.0915 8.8176 93.0915 9.99545V11.5731H94.0592C94.9426 11.5732 95.6575 12.2883 95.6575 13.1716C95.6575 14.0549 94.9426 14.7698 94.0592 14.7699H93.0915V17.6936C93.0915 18.4087 93.1544 18.6614 93.1965 18.7455C93.2597 18.7876 93.4911 18.8506 93.9539 18.8507C95.1104 18.8507 96.0574 19.797 96.0574 20.9749C96.0574 22.1317 95.1104 23.0781 93.9539 23.0781C90.4203 23.078 88.8641 21.0168 88.8641 17.6936V14.7699H88.3803C87.4969 14.7699 86.7817 14.055 86.7817 13.1716C86.7817 12.2882 87.4969 11.5731 88.3803 11.5731H88.8641V9.99545C88.8641 8.8176 89.8104 7.87126 90.9673 7.87126ZM115.3 11.5731C116.793 11.5731 118.139 12.2039 119.128 13.3396C119.485 13.7603 119.654 14.3075 119.612 14.8754C119.57 15.4432 119.317 15.948 118.875 16.3265C118.455 16.6841 117.908 16.8523 117.34 16.8103C116.793 16.7682 116.267 16.5157 115.91 16.074C115.741 15.8848 115.552 15.8006 115.3 15.8005C114.458 15.8005 113.785 16.4949 113.785 17.3363V20.9749C113.785 22.1317 112.839 23.0781 111.661 23.0781C110.504 23.078 109.557 22.1317 109.557 20.9749V13.6973C109.557 12.5195 110.504 11.5732 111.661 11.5731C112.166 11.5731 112.629 11.7623 113.007 12.0568C113.722 11.7413 114.522 11.5731 115.3 11.5731ZM136.772 7.87126C137.95 7.87126 138.897 8.8176 138.897 9.99545V11.5731H139.864C140.747 11.5731 141.463 12.2882 141.463 13.1716C141.463 14.055 140.747 14.7699 139.864 14.7699H138.897V17.6936C138.897 18.4087 138.96 18.6614 139.002 18.7455C139.065 18.7876 139.297 18.8507 139.759 18.8507C140.916 18.8507 141.862 19.797 141.862 20.9749C141.862 22.1317 140.916 23.0781 139.759 23.0781C136.226 23.0781 134.669 21.0168 134.669 17.6936V14.7699H134.185C133.302 14.7699 132.587 14.055 132.587 13.1716C132.587 12.2883 133.302 11.5731 134.185 11.5731H134.669V9.99545C134.669 8.81764 135.616 7.87137 136.772 7.87126ZM145.245 11.468C146.423 11.468 147.369 12.4144 147.369 13.5712V20.9749C147.369 22.1317 146.423 23.078 145.245 23.0781C144.088 23.0781 143.141 22.1317 143.141 20.9749V13.5712C143.141 12.4144 144.088 11.468 145.245 11.468ZM161.718 11.5731C165.63 11.5731 167.04 15.0857 167.061 18.0935V20.9749C167.061 22.1317 166.114 23.078 164.957 23.0781C163.78 23.0781 162.833 22.1317 162.833 20.9749V18.1563C162.833 17.0205 162.538 15.8005 161.718 15.8005C160.877 15.8006 160.183 16.495 160.183 17.3363V20.9749C160.183 22.1317 159.236 23.0781 158.079 23.0781C156.923 23.0781 155.976 22.1317 155.976 20.9749V18.1563C155.976 17.0206 155.681 15.8007 154.84 15.8005C153.999 15.8005 153.326 16.4949 153.326 17.3363V20.9749C153.326 22.1317 152.379 23.0781 151.201 23.0781C150.044 23.0781 149.098 22.1317 149.098 20.9749V13.6973C149.098 12.5195 150.045 11.5731 151.201 11.5731C151.706 11.5731 152.169 11.7624 152.547 12.0568C153.263 11.7413 154.062 11.5731 154.84 11.5731C156.081 11.5731 157.238 12.0148 158.142 12.814C159.152 12.0148 160.414 11.5731 161.718 11.5731ZM173.871 11.5731C175.26 11.5731 178.604 12.3724 178.604 16.4107C178.604 17.3361 177.805 18.4088 175.638 18.4088H172.946C172.946 18.4104 173.052 18.8507 173.871 18.8507C175.449 18.8506 177.678 18.3669 177.678 20.2809C177.678 21.0171 177.321 23.0781 173.871 23.0781C169.854 23.0781 168.129 20.1546 168.129 17.5675C168.129 12.9822 172.294 11.5731 173.871 11.5731ZM79.5597 6.90342C82.2099 6.90342 83.8296 8.1444 84.7341 9.17503C85.239 9.76395 85.4071 10.5422 85.1547 11.2573C84.9233 11.9935 84.3556 12.5406 83.5982 12.7089L83.556 12.7298C81.8314 12.7298 81.2215 11.3415 79.5597 11.3415C79.2865 11.3415 77.8561 11.3837 77.8561 12.2461C77.8564 15.1906 86.9426 11.489 86.9426 18.0935C86.9426 19.1874 86.0798 23.0361 80.0856 23.0362C74.8484 23.0362 73.965 19.4606 73.9018 19.166C73.6494 18.0723 74.3224 16.6 75.6897 16.6C77.73 16.6 76.6995 18.5981 80.0856 18.5981C80.9273 18.5981 82.5045 18.7241 82.5045 17.8828C82.5041 15.3591 73.418 17.8408 73.418 12.2461C73.418 9.11212 75.9421 6.90342 79.5597 6.90342ZM102.513 11.594C106.699 11.5941 108.276 15.1277 108.276 17.3572C108.276 19.5045 107.078 21.388 105.311 22.3725C104.934 21.8341 104.28 21.5215 103.593 21.6146C102.421 21.7732 101.487 22.1908 100.84 22.8477C98.4931 22.126 96.7711 19.931 96.7711 17.3572C96.7711 14.1812 99.3585 11.594 102.513 11.594ZM102.513 15.8215C101.672 15.8215 100.999 16.5159 100.999 17.3572C100.999 18.1985 101.672 18.8716 102.513 18.8716C103.355 18.8716 104.049 18.1985 104.049 17.3572C104.049 16.2846 103.586 15.8215 102.513 15.8215ZM173.956 15.0646C172.609 15.0646 172.631 16.3056 172.631 16.3056H175.281C175.281 16.3056 175.239 15.0647 173.956 15.0646ZM145.35 6.77734C146.528 6.77742 147.474 7.74484 147.474 8.90158C147.474 10.0794 146.528 11.0261 145.35 11.0262C144.172 11.0262 143.225 10.0794 143.225 8.90158C143.225 7.7448 144.172 6.77734 145.35 6.77734Z" fill="#EC4007"/>
</g>
<defs>
<clipPath id="clip0_534_82">
<rect width="178.903" height="63.976" fill="white"/>
</clipPath>
</defs>
</svg>
