<svg width="40" height="40" viewBox="0 0 40 40" fill="none" xmlns="http://www.w3.org/2000/svg">
<path d="M19.5541 3.25781C16.331 3.25781 13.1803 4.21357 10.5004 6.00423C7.82047 7.79489 5.73173 10.34 4.4983 13.3178C3.26487 16.2955 2.94215 19.5722 3.57095 22.7334C4.19974 25.8945 5.75182 28.7982 8.03089 31.0773C10.31 33.3564 13.2137 34.9085 16.3749 35.5373C19.536 36.1661 22.8127 35.8433 25.7904 34.6099C28.7682 33.3765 31.3133 31.2878 33.104 28.6078C34.8946 25.9279 35.8504 22.7772 35.8504 19.5541C35.8461 15.2334 34.1278 11.0909 31.0726 8.03565C28.0174 4.98044 23.8748 3.26213 19.5541 3.25781ZM29.2325 15.8271V16.8799C29.2325 16.9605 29.2164 17.0402 29.1851 17.1145C29.1538 17.1887 29.1079 17.2559 29.0502 17.3121C28.9924 17.3683 28.924 17.4124 28.849 17.4417C28.7739 17.471 28.6938 17.485 28.6132 17.4828C26.8926 17.3613 25.2465 16.733 23.8824 15.6772V23.3821C23.882 24.2348 23.7118 25.079 23.3816 25.8652C23.0515 26.6514 22.568 27.364 21.9594 27.9614C21.3459 28.5743 20.6162 29.0587 19.8131 29.3861C19.01 29.7135 18.1496 29.8773 17.2824 29.868C15.5385 29.8655 13.8647 29.1812 12.6184 27.9614C11.8254 27.1619 11.2542 26.1697 10.9611 25.0825C10.6679 23.9952 10.6629 22.8504 10.9464 21.7606C11.2055 20.7144 11.7286 19.7529 12.4669 18.9691C13.0174 18.2962 13.7114 17.7548 14.498 17.3846C15.2847 17.0144 16.1441 16.8247 17.0135 16.8294H18.3498V19.6046C18.3504 19.6852 18.3338 19.765 18.3011 19.8387C18.2685 19.9124 18.2204 19.9783 18.1603 20.0319C18.1002 20.0856 18.0293 20.1258 17.9524 20.1499C17.8754 20.174 17.7943 20.1815 17.7143 20.1717C16.9384 19.9387 16.1023 20.016 15.3823 20.3873C14.6623 20.7587 14.1146 21.3951 13.8547 22.1624C13.5948 22.9297 13.6429 23.768 13.989 24.5004C14.3351 25.2329 14.952 25.8024 15.7098 26.0889C16.1498 26.3415 16.642 26.4898 17.1472 26.524C17.5383 26.5403 17.9294 26.4914 18.3009 26.3741C18.9212 26.1648 19.4607 25.7673 19.8443 25.2368C20.2278 24.7063 20.4363 24.0693 20.4406 23.4147V9.37544C20.4406 9.22013 20.5022 9.07116 20.6119 8.96118C20.7216 8.85121 20.8704 8.78921 21.0257 8.78877H23.3316C23.4814 8.78896 23.6255 8.84646 23.7343 8.94949C23.8431 9.05251 23.9083 9.19325 23.9166 9.34285C24.0007 10.0619 24.2291 10.7566 24.5881 11.3852C24.947 12.0139 25.4293 12.5636 26.0058 13.0014C26.7849 13.5862 27.7103 13.9449 28.68 14.0378C28.8253 14.0502 28.9611 14.1149 29.0624 14.2197C29.1637 14.3246 29.2235 14.4626 29.2309 14.6082L29.2325 15.8271Z" fill="white"/>
</svg>
