<svg width="60" height="60" viewBox="0 0 60 60" fill="none" xmlns="http://www.w3.org/2000/svg">
<path d="M30 5.00024C25.0555 5.00024 20.222 6.46647 16.1108 9.2135C11.9995 11.9605 8.79521 15.865 6.90302 20.4332C5.01083 25.0013 4.51575 30.028 5.48038 34.8775C6.44501 39.727 8.82603 44.1816 12.3223 47.6779C15.8187 51.1742 20.2732 53.5552 25.1228 54.5199C29.9723 55.4845 34.9989 54.9894 39.5671 53.0972C44.1353 51.205 48.0397 48.0007 50.7867 43.8895C53.5338 39.7783 55 34.9448 55 30.0002C54.9934 23.3719 52.3573 17.0169 47.6704 12.3299C42.9834 7.64291 36.6284 5.00686 30 5.00024ZM44.8475 24.2827V25.8977C44.8476 26.0213 44.8228 26.1437 44.7748 26.2576C44.7267 26.3715 44.6564 26.4746 44.5678 26.5608C44.4792 26.647 44.3743 26.7146 44.2592 26.7596C44.1441 26.8046 44.0211 26.8261 43.8975 26.8227C41.2579 26.6363 38.7326 25.6724 36.64 24.0527V35.8727C36.6394 37.1809 36.3783 38.4759 35.8718 39.682C35.3653 40.8882 34.6236 41.9814 33.69 42.8977C32.7488 43.8381 31.6294 44.5811 30.3973 45.0834C29.1653 45.5857 27.8454 45.837 26.515 45.8227C23.8397 45.8189 21.2719 44.7691 19.36 42.8977C18.1435 41.6712 17.2672 40.1492 16.8175 38.4812C16.3678 36.8133 16.36 35.0571 16.795 33.3852C17.1925 31.7802 17.995 30.3052 19.1275 29.1027C19.9721 28.0705 21.0367 27.24 22.2435 26.6721C23.4503 26.1041 24.7688 25.8131 26.1025 25.8202H28.1525V30.0777C28.1534 30.2014 28.128 30.3238 28.0778 30.4368C28.0277 30.5499 27.954 30.6509 27.8618 30.7332C27.7695 30.8156 27.6608 30.8773 27.5428 30.9143C27.4248 30.9513 27.3003 30.9627 27.1775 30.9477C25.9872 30.5902 24.7046 30.7088 23.6001 31.2785C22.4956 31.8482 21.6554 32.8245 21.2566 34.0016C20.8579 35.1787 20.9317 36.4647 21.4626 37.5884C21.9935 38.7121 22.94 39.5858 24.1025 40.0252C24.7775 40.4127 25.5325 40.6402 26.3075 40.6927C26.9075 40.7177 27.5075 40.6427 28.0775 40.4627C29.0291 40.1417 29.8568 39.5318 30.4452 38.7179C31.0336 37.9041 31.3534 36.927 31.36 35.9227V14.3852C31.36 14.147 31.4545 13.9184 31.6227 13.7497C31.791 13.581 32.0193 13.4859 32.2575 13.4852H35.795C36.0249 13.4855 36.2459 13.5737 36.4128 13.7318C36.5797 13.8898 36.6797 14.1058 36.6925 14.3352C36.8215 15.4383 37.1718 16.504 37.7225 17.4684C38.2733 18.4328 39.013 19.2761 39.8975 19.9477C41.0928 20.845 42.5123 21.3951 44 21.5377C44.2228 21.5568 44.4312 21.6559 44.5866 21.8168C44.7419 21.9777 44.8337 22.1894 44.845 22.4127L44.8475 24.2827Z" fill="#212121"/>
</svg>
