<svg width="60" height="60" viewBox="0 0 60 60" fill="none" xmlns="http://www.w3.org/2000/svg">
<path d="M32.5695 4.99854C35.382 5.00604 36.8095 5.02104 38.042 5.05604L38.527 5.07354C39.087 5.09354 39.6395 5.11854 40.307 5.14854C42.967 5.27354 44.782 5.69354 46.3745 6.31104C48.0245 6.94604 49.4145 7.80604 50.8045 9.19353C52.0762 10.4429 53.0599 11.9547 53.687 13.6235C54.3045 15.216 54.7245 17.031 54.8495 19.6935C54.8795 20.3585 54.9045 20.911 54.9245 21.4735L54.9395 21.9585C54.977 23.1885 54.992 24.616 54.997 27.4285L54.9995 29.2935V32.5685C55.0056 34.392 54.9864 36.2156 54.942 38.0385L54.927 38.5235C54.907 39.086 54.882 39.6385 54.852 40.3035C54.727 42.966 54.302 44.7785 53.687 46.3735C53.0599 48.0424 52.0762 49.5542 50.8045 50.8035C49.5551 52.0753 48.0433 53.059 46.3745 53.686C44.782 54.3035 42.967 54.7235 40.307 54.8485L38.527 54.9235L38.042 54.9385C36.8095 54.9735 35.382 54.991 32.5695 54.996L30.7045 54.9985H27.432C25.6076 55.005 23.7833 54.9858 21.9595 54.941L21.4745 54.926C20.881 54.9036 20.2877 54.8777 19.6945 54.8485C17.0345 54.7235 15.2195 54.3035 13.6245 53.686C11.9565 53.0587 10.4456 52.075 9.19697 50.8035C7.92433 49.5545 6.93974 48.0426 6.31197 46.3735C5.69447 44.781 5.27447 42.966 5.14947 40.3035L5.07447 38.5235L5.06197 38.0385C5.01588 36.2156 4.99505 34.3921 4.99947 32.5685V27.4285C4.99255 25.605 5.01088 23.7815 5.05447 21.9585L5.07197 21.4735C5.09197 20.911 5.11697 20.3585 5.14697 19.6935C5.27197 17.031 5.69197 15.2185 6.30947 13.6235C6.9387 11.954 7.92503 10.4421 9.19947 9.19353C10.4474 7.92241 11.9574 6.93872 13.6245 6.31104C15.2195 5.69354 17.032 5.27354 19.6945 5.14854C20.3595 5.11854 20.9145 5.09354 21.4745 5.07354L21.9595 5.05853C23.7824 5.01412 25.606 4.99495 27.4295 5.00103L32.5695 4.99854ZM29.9995 17.4985C26.6843 17.4985 23.5048 18.8155 21.1606 21.1597C18.8164 23.5039 17.4995 26.6833 17.4995 29.9985C17.4995 33.3137 18.8164 36.4932 21.1606 38.8374C23.5048 41.1816 26.6843 42.4985 29.9995 42.4985C33.3147 42.4985 36.4941 41.1816 38.8383 38.8374C41.1825 36.4932 42.4995 33.3137 42.4995 29.9985C42.4995 26.6833 41.1825 23.5039 38.8383 21.1597C36.4941 18.8155 33.3147 17.4985 29.9995 17.4985ZM29.9995 22.4985C30.9844 22.4984 31.9597 22.6922 32.8697 23.069C33.7797 23.4457 34.6066 23.998 35.3031 24.6944C35.9997 25.3907 36.5523 26.2174 36.9293 27.1273C37.3064 28.0371 37.5006 29.0124 37.5007 29.9973C37.5009 30.9822 37.3071 31.9575 36.9303 32.8675C36.5535 33.7775 36.0012 34.6044 35.3049 35.301C34.6086 35.9975 33.7819 36.5501 32.872 36.9272C31.9621 37.3042 30.9869 37.4984 30.002 37.4985C28.0128 37.4985 26.1052 36.7084 24.6987 35.3018C23.2921 33.8953 22.502 31.9877 22.502 29.9985C22.502 28.0094 23.2921 26.1018 24.6987 24.6952C26.1052 23.2887 28.0128 22.4985 30.002 22.4985M43.127 13.7485C42.2982 13.7485 41.5033 14.0778 40.9173 14.6638C40.3312 15.2499 40.002 16.0447 40.002 16.8735C40.002 17.7023 40.3312 18.4972 40.9173 19.0832C41.5033 19.6693 42.2982 19.9985 43.127 19.9985C43.9558 19.9985 44.7506 19.6693 45.3367 19.0832C45.9227 18.4972 46.252 17.7023 46.252 16.8735C46.252 16.0447 45.9227 15.2499 45.3367 14.6638C44.7506 14.0778 43.9558 13.7485 43.127 13.7485Z" fill="#212121"/>
</svg>
