<svg width="60" height="60" viewBox="0 0 60 60" fill="none" xmlns="http://www.w3.org/2000/svg">
<path d="M30.0005 5.29419C16.6805 5.29419 5.88281 16.3552 5.88281 30.0001C5.88281 43.6449 16.6805 54.706 30.0005 54.706C43.3204 54.706 54.1181 43.6449 54.1181 30.0001C54.1181 16.3552 43.3204 5.29419 30.0005 5.29419ZM24.0967 40.2401H19.2128V24.1401H24.0967V40.2401ZM21.6246 22.1637C20.0821 22.1637 19.0847 21.0442 19.0847 19.6596C19.0847 18.2468 20.1122 17.1607 21.6874 17.1607C23.2626 17.1607 24.2273 18.2468 24.2574 19.6596C24.2574 21.0442 23.2626 22.1637 21.6246 22.1637ZM41.9337 40.2401H37.0498V31.3177C37.0498 29.2409 36.3414 27.8306 34.5753 27.8306C33.2262 27.8306 32.4248 28.7854 32.0706 29.7041C31.9399 30.031 31.9073 30.4942 31.9073 30.9549V40.2376H27.0209V29.2743C27.0209 27.2644 26.9581 25.5839 26.8928 24.1376H31.136L31.3596 26.374H31.4576C32.1007 25.324 33.6759 23.7747 36.3112 23.7747C39.5244 23.7747 41.9337 25.9802 41.9337 30.7207V40.2401Z" fill="#212121"/>
</svg>
