<svg width="60" height="60" viewBox="0 0 60 60" fill="none" xmlns="http://www.w3.org/2000/svg">
<path d="M30 5.29395C16.68 5.29395 5.88232 16.355 5.88232 29.9998C5.88232 43.6447 16.68 54.7057 30 54.7057C43.3199 54.7057 54.1176 43.6447 54.1176 29.9998C54.1176 16.355 43.3199 5.29395 30 5.29395ZM24.0962 40.2399H19.2123V24.1399H24.0962V40.2399ZM21.6241 22.1634C20.0816 22.1634 19.0842 21.0439 19.0842 19.6594C19.0842 18.2465 20.1117 17.1605 21.6869 17.1605C23.2621 17.1605 24.2268 18.2465 24.257 19.6594C24.257 21.0439 23.2621 22.1634 21.6241 22.1634ZM41.9332 40.2399H37.0494V31.3175C37.0494 29.2406 36.3409 27.8303 34.5748 27.8303C33.2257 27.8303 32.4243 28.7851 32.0701 29.7039C31.9394 30.0307 31.9068 30.4939 31.9068 30.9546V40.2373H27.0204V29.2741C27.0204 27.2642 26.9576 25.5837 26.8923 24.1373H31.1355L31.3591 26.3737H31.4571C32.1002 25.3237 33.6754 23.7745 36.3108 23.7745C39.5239 23.7745 41.9332 25.98 41.9332 30.7204V40.2399Z" fill="white"/>
</svg>
