<svg width="198" height="196" viewBox="0 0 198 196" fill="none" xmlns="http://www.w3.org/2000/svg">
<path d="M63.2378 128.881L64.6341 130.856C64.8226 131.12 65.2407 131.331 65.5503 131.234L67.9777 130.469C68.6701 130.251 69.2372 131.046 68.805 131.63L67.2906 133.675C67.0974 133.936 67.0942 134.292 67.2825 134.556L68.7596 136.628C69.181 137.219 68.5997 138.004 67.9114 137.774L65.4982 136.966C65.1904 136.862 64.8511 136.969 64.6579 137.23L63.1434 139.275C62.7114 139.859 61.7852 139.549 61.7917 138.823L61.8147 136.278C61.8176 135.953 61.6112 135.664 61.3034 135.56L58.8903 134.752C58.2019 134.522 58.2107 133.545 58.9032 133.327L61.3305 132.562C61.6402 132.465 61.8518 132.179 61.8547 131.854L61.8777 129.309C61.8842 128.584 62.8161 128.29 63.2375 128.881L63.2378 128.881Z" fill="#FFA708"/>
<path d="M176.865 78.1503L178.261 80.125C178.449 80.3894 178.868 80.6 179.177 80.5025L181.605 79.738C182.297 79.52 182.864 80.3154 182.432 80.8988L180.918 82.944C180.724 83.2049 180.721 83.5605 180.91 83.8249L182.387 85.8972C182.808 86.4883 182.227 87.2734 181.538 87.0428L179.125 86.2345C178.817 86.1314 178.478 86.2383 178.285 86.4992L176.77 88.5444C176.338 89.1278 175.412 88.8176 175.419 88.0917L175.442 85.5468C175.445 85.2222 175.238 84.9325 174.93 84.8294L172.517 84.0211C171.829 83.7905 171.838 82.8137 172.53 82.5957L174.958 81.8312C175.267 81.7337 175.479 81.4478 175.482 81.1232L175.505 78.5785C175.511 77.8524 176.443 77.5591 176.864 78.1503H176.865Z" fill="#FFA708"/>
<path d="M166.482 95.8234L167.364 97.071C167.483 97.238 167.747 97.3711 167.943 97.3094L169.476 96.8264C169.914 96.6886 170.272 97.1912 169.999 97.5597L169.042 98.8518C168.92 99.0167 168.918 99.2414 169.037 99.4084L169.97 100.718C170.236 101.091 169.869 101.587 169.434 101.441L167.91 100.931C167.715 100.865 167.501 100.933 167.379 101.098L166.422 102.39C166.149 102.758 165.564 102.562 165.568 102.104L165.583 100.496C165.585 100.291 165.454 100.108 165.26 100.043L163.735 99.5322C163.3 99.3866 163.306 98.7694 163.743 98.6316L165.277 98.1486C165.473 98.087 165.606 97.9063 165.608 97.7013L165.623 96.0936C165.627 95.6349 166.216 95.4496 166.482 95.823L166.482 95.8234Z" fill="#FFA708"/>
<path d="M66.7394 46.7256L67.6215 47.9732C67.7405 48.1402 68.0047 48.2733 68.2004 48.2116L69.7339 47.7286C70.1714 47.5908 70.5296 48.0934 70.2566 48.4619L69.2998 49.754C69.1778 49.9189 69.1758 50.1436 69.2948 50.3106L70.228 51.6197C70.4942 51.9933 70.127 52.4891 69.6921 52.3435L68.1677 51.8328C67.9733 51.7677 67.7588 51.8352 67.6368 51.9999L66.68 53.292C66.4072 53.6605 65.8219 53.4646 65.826 53.0059L65.8406 51.3982C65.8424 51.193 65.712 51.0101 65.5174 50.945L63.993 50.4344C63.5581 50.2888 63.5637 49.6716 64.0011 49.534L65.5347 49.0509C65.7303 48.9893 65.864 48.8087 65.8658 48.6037L65.8804 46.9959C65.8846 46.5373 66.4732 46.3519 66.7394 46.7253V46.7256Z" fill="#FFA708"/>
<path d="M3.06944 95.8234L3.95159 97.071C4.0706 97.238 4.33483 97.3711 4.53046 97.3094L6.064 96.8264C6.50144 96.6886 6.85969 97.1912 6.58669 97.5597L5.62989 98.8518C5.50785 99.0167 5.50573 99.2414 5.62489 99.4084L6.55807 100.718C6.82426 101.091 6.45708 101.587 6.02221 101.441L4.49775 100.931C4.30333 100.865 4.08892 100.933 3.96688 101.098L3.01008 102.39C2.73708 102.758 2.15201 102.562 2.1561 102.104L2.17063 100.496C2.17245 100.291 2.04208 100.108 1.84751 100.043L0.323047 99.5322C-0.111821 99.3866 -0.106216 98.7694 0.331226 98.6316L1.86477 98.1486C2.0604 98.087 2.1941 97.9063 2.19592 97.7013L2.21045 96.0936C2.21454 95.6349 2.80325 95.4496 3.06944 95.823V95.8234Z" fill="#FFA708"/>
<path d="M58.1066 85.5699L58.9887 86.8174C59.1077 86.9844 59.3719 87.1175 59.5676 87.0559L61.1011 86.5729C61.5385 86.4351 61.8968 86.9376 61.6238 87.3062L60.667 88.5982C60.545 88.7631 60.5428 88.9878 60.662 89.1548L61.5952 90.464C61.8614 90.8375 61.4942 91.3334 61.0593 91.1877L59.5349 90.6771C59.3404 90.612 59.126 90.6794 59.004 90.8443L58.0472 92.1364C57.7742 92.5049 57.1891 92.309 57.1932 91.8503L57.2077 90.2426C57.2096 90.0374 57.0792 89.8545 56.8846 89.7894L55.3602 89.2788C54.9253 89.1332 54.9309 88.516 55.3683 88.3782L56.9019 87.8952C57.0975 87.8336 57.2312 87.6529 57.233 87.4479L57.2476 85.8402C57.2516 85.3815 57.8404 85.1962 58.1066 85.5696V85.5699Z" fill="#FFA708"/>
<path d="M138.384 9.02215L139.781 10.9969C139.969 11.2613 140.387 11.4719 140.697 11.3744L143.124 10.6099C143.817 10.3919 144.384 11.1873 143.952 11.7707L142.437 13.8158C142.244 14.0767 142.241 14.4324 142.429 14.6968L143.906 16.7691C144.327 17.3602 143.746 18.1453 143.058 17.9147L140.645 17.1064C140.337 17.0033 139.998 17.1102 139.804 17.3711L138.29 19.4163C137.858 19.9997 136.932 19.6894 136.938 18.9635L136.961 16.4188C136.964 16.0942 136.758 15.8045 136.45 15.7014L134.037 14.8932C133.348 14.6626 133.357 13.6858 134.05 13.4677L136.477 12.7032C136.787 12.6057 136.998 12.3199 137.001 11.9952L137.024 9.45051C137.031 8.72462 137.963 8.43118 138.384 9.02231L138.384 9.02215Z" fill="#FFA708"/>
<path d="M91.8922 165.537L93.2884 167.512C93.4769 167.776 93.895 167.987 94.2046 167.889L96.632 167.125C97.3244 166.907 97.8915 167.702 97.4593 168.286L95.9449 170.331C95.7517 170.592 95.7485 170.947 95.9368 171.212L97.4139 173.284C97.8353 173.875 97.254 174.66 96.5657 174.43L94.1525 173.621C93.8447 173.518 93.5054 173.625 93.3122 173.886L91.7977 175.931C91.3657 176.515 90.4395 176.204 90.446 175.478L90.469 172.934C90.4719 172.609 90.2655 172.319 89.9577 172.216L87.5446 171.408C86.8563 171.177 86.865 170.201 87.5575 169.983L89.9848 169.218C90.2945 169.121 90.5061 168.835 90.5092 168.51L90.5322 165.965C90.5387 165.239 91.4705 164.946 91.8919 165.537L91.8922 165.537Z" fill="#FFA708"/>
<path d="M47.8787 68.9265C50.3467 68.9265 52.3474 66.9258 52.3474 64.4579C52.3474 61.9899 50.3467 59.9893 47.8787 59.9893C45.4108 59.9893 43.4102 61.9899 43.4102 64.4579C43.4102 66.9258 45.4108 68.9265 47.8787 68.9265Z" fill="#1FA78E"/>
<path d="M181.764 111.281C184.231 111.281 186.232 109.281 186.232 106.813C186.232 104.345 184.231 102.344 181.764 102.344C179.296 102.344 177.295 104.345 177.295 106.813C177.295 109.281 179.296 111.281 181.764 111.281Z" fill="#1FA78E"/>
<path d="M85.8963 32.2263C88.3643 32.2263 90.3649 30.2256 90.3649 27.7577C90.3649 25.2897 88.3643 23.2891 85.8963 23.2891C83.4284 23.2891 81.4277 25.2897 81.4277 27.7577C81.4277 30.2256 83.4284 32.2263 85.8963 32.2263Z" fill="#1FA78E"/>
<path d="M113.453 80.6425C115.002 80.6425 116.257 79.3869 116.257 77.8381C116.257 76.2893 115.002 75.0337 113.453 75.0337C111.904 75.0337 110.648 76.2893 110.648 77.8381C110.648 79.3869 111.904 80.6425 113.453 80.6425Z" fill="#4754A6"/>
<path d="M98.8629 114.993C100.249 114.302 100.813 112.619 100.122 111.232C99.4316 109.846 97.7479 109.282 96.3616 109.973C94.9754 110.664 94.4115 112.347 95.1022 113.734C95.7929 115.12 97.4767 115.684 98.8629 114.993Z" fill="#4754A6"/>
<path d="M46.2145 160.051C47.7634 160.051 49.0189 158.795 49.0189 157.246C49.0189 155.697 47.7634 154.442 46.2145 154.442C44.6657 154.442 43.4102 155.697 43.4102 157.246C43.4102 158.795 44.6657 160.051 46.2145 160.051Z" fill="#4754A6"/>
<path d="M50.6628 32.6904L44.3379 38.3767L51.4171 41.1622L50.6628 32.6904Z" fill="#E04949"/>
<path d="M45.2664 130.405L38.9414 136.092L46.0204 138.877L45.2664 130.405Z" fill="#E04949"/>
<path d="M144.744 36.7417L142.518 44.9503L149.975 43.4482L144.744 36.7417Z" fill="#E04949"/>
<path d="M88.6804 57.583L82.3555 63.2693L89.4345 66.0547L88.6804 57.583Z" fill="#E04949"/>
<path d="M25.6687 79.1074L19.3438 84.7937L26.4228 87.5792L25.6687 79.1074Z" fill="#863FBF"/>
<path d="M91.4668 156.643C95.2608 152.361 103.204 143.74 112.115 134.112L112.116 134.111C115.431 130.528 118.879 126.805 122.298 123.117C130.665 114.087 138.849 105.249 144.441 99.1286C149.248 95.5876 152.555 93.8824 153.465 94.7174C153.545 94.8831 153.624 95.0487 153.703 95.2154C155.091 98.1335 156.474 101.121 157.854 104.164L157.855 104.165C162.09 113.499 166.302 123.363 170.56 133.45L170.561 133.451C171.85 136.508 173.143 139.583 174.444 142.671L174.445 142.672C177.005 148.752 179.589 154.878 182.213 160.987C183.602 164.216 185 167.441 186.41 170.65C190.093 179.019 193.864 187.29 197.768 195.294C197.844 195.452 197.921 195.611 197.998 195.767C193.091 194.266 187.972 192.601 182.702 190.814C180.339 190.012 177.945 189.186 175.527 188.338C170.093 186.434 164.537 184.425 158.926 182.354C156.583 181.491 154.232 180.615 151.876 179.734C148.006 178.283 144.121 176.812 140.244 175.336C137.885 174.435 135.528 173.533 133.18 172.631C127.728 170.539 122.322 168.45 117.021 166.406C114.511 165.437 112.024 164.477 109.567 163.533C103.651 161.257 97.9102 159.061 92.436 157.006C92.1126 156.885 91.7893 156.763 91.4671 156.643L91.4668 156.643Z" fill="#863FBF"/>
<path d="M175.531 188.34C175.657 187.116 175.798 185.893 175.953 184.668C176.312 181.873 176.758 179.081 177.333 176.304C178.498 170.692 180.131 165.571 182.217 160.989C183.606 164.218 185.004 167.442 186.414 170.652C185.697 172.916 185.08 175.301 184.561 177.803C183.859 181.188 183.359 184.647 182.977 188.13C182.88 189.024 182.79 189.919 182.706 190.816C180.343 190.013 177.949 189.187 175.531 188.34Z" fill="#FBEACC"/>
<path d="M151.877 179.736C152.256 177.564 152.76 175.331 153.384 173.044C154.501 168.945 156.006 164.672 157.886 160.266C159.937 155.46 162.271 150.733 164.529 146.16C166.658 141.85 168.723 137.668 170.562 133.453C171.851 136.51 173.145 139.584 174.445 142.673L174.446 142.674C173.358 144.951 172.247 147.201 171.148 149.428C168.934 153.91 166.646 158.545 164.675 163.164C162.675 167.851 161.138 172.346 160.084 176.595C159.593 178.57 159.207 180.492 158.927 182.356C156.584 181.493 154.233 180.617 151.877 179.735L151.877 179.736Z" fill="#FBEACC"/>
<path d="M133.184 172.632C133.682 169.273 134.226 165.921 134.816 162.579C138.895 139.439 145.131 116.734 153.467 94.7144C154.937 97.7925 156.398 100.946 157.857 104.164L157.858 104.165C150.631 124.458 145.202 145.315 141.624 166.536C141.129 169.463 140.671 172.397 140.247 175.337C137.888 174.436 135.531 173.534 133.184 172.632V172.632Z" fill="#FBEACC"/>
<path d="M109.568 163.534C109.426 153.671 110.282 143.803 112.116 134.112L112.117 134.111C115.432 130.528 118.88 126.806 122.299 123.117C118.28 137.168 116.5 151.814 117.022 166.407C114.512 165.438 112.025 164.478 109.568 163.534Z" fill="#FBEACC"/>
<path d="M90.6483 156.388C86.8251 152.565 97.6226 135.572 114.762 118.432C124.614 108.581 134.417 100.825 141.698 96.7354C147.042 93.7316 151.029 92.7059 152.679 94.2813C152.693 94.2928 152.706 94.3053 152.718 94.3179C152.934 94.534 153.104 94.792 153.228 95.0912C155.299 100.064 144.774 116.104 128.604 132.274C113.185 147.692 97.8857 157.98 92.1842 157.104C91.5472 157.008 91.0322 156.772 90.6483 156.388Z" fill="#67249E"/>
<path d="M134.774 99.1047C134.563 97.7775 134.377 96.4479 134.195 95.1153C134.029 93.7812 133.871 92.4442 133.757 91.0993C133.637 89.755 133.558 88.4041 133.537 87.0468C133.513 86.3683 133.534 85.6883 133.538 85.0074L133.58 83.9855C133.59 83.6443 133.615 83.3036 133.642 82.9625C133.734 81.5975 133.925 80.2341 134.183 78.8785L134.392 77.8632L134.65 76.8569C134.817 76.1848 135.036 75.5137 135.27 74.8557C135.503 74.1949 135.774 73.5482 136.064 72.9098C136.359 72.2731 136.683 71.6499 137.028 71.0366C137.729 69.8179 138.522 68.6432 139.44 67.5603C139.663 67.2847 139.907 67.0253 140.143 66.7591C140.39 66.5026 140.63 66.2399 140.889 65.994C141.396 65.4915 141.937 65.0189 142.5 64.5715C143.626 63.6767 144.87 62.9098 146.2 62.3016C146.865 61.9959 147.557 61.7444 148.261 61.5259C148.967 61.3128 149.691 61.1588 150.423 61.0435C151.884 60.8291 153.417 60.8138 154.947 61.1273C155.711 61.2897 156.476 61.5359 157.207 61.8962C157.937 62.2549 158.628 62.7354 159.235 63.3132C160.447 64.4785 161.232 66.0075 161.59 67.5527C161.958 69.1058 161.945 70.6876 161.661 72.2032C161.514 72.961 161.304 73.7069 161.013 74.4264C160.872 74.788 160.703 75.1397 160.526 75.4878C160.339 75.8352 160.149 76.1683 159.934 76.4894C159.51 77.1355 159.016 77.7445 158.447 78.3017C157.881 78.8602 157.23 79.3618 156.497 79.7656C155.049 80.5886 153.169 80.8994 151.512 80.5173C150.684 80.3336 149.907 80.0208 149.196 79.6221C148.491 79.2149 147.856 78.7198 147.284 78.168C146.707 77.6192 146.222 76.9879 145.796 76.3196C145.695 76.1485 145.583 75.9849 145.493 75.8066L145.222 75.2733C145.065 74.9064 144.904 74.5292 144.796 74.1647C144.311 72.6927 144.163 71.1631 144.2 69.6919C144.227 68.9559 144.294 68.2303 144.404 67.518C144.512 66.8055 144.662 66.1094 144.829 65.4229C144.999 64.7371 145.187 64.0619 145.409 63.404L146.086 61.4355C146.342 60.791 146.617 60.1546 146.882 59.5152L147.083 59.0367L147.311 58.5705L147.768 57.639C147.923 57.3301 148.066 57.0155 148.231 56.712L148.743 55.8114L149.257 54.9131L149.386 54.6887C149.43 54.6149 149.479 54.5436 149.525 54.4711L149.808 54.0376L150.372 53.1716C150.562 52.8844 150.741 52.5903 150.952 52.3178L152.181 50.6604C153.889 48.5048 155.798 46.5222 157.867 44.7385L158.653 44.0817C158.915 43.8636 159.172 43.6394 159.451 43.4419L161.093 42.2244L162.802 41.1081C162.946 41.017 163.085 40.9195 163.231 40.8339L163.675 40.5821L164.562 40.0821L165.005 39.8328C165.153 39.7501 165.298 39.6636 165.453 39.5929L166.366 39.1468L167.278 38.7023C167.427 38.6249 167.584 38.5596 167.74 38.4959L168.209 38.3022L169.147 37.9216L169.615 37.7317C169.77 37.666 169.934 37.6207 170.093 37.5644C170.731 37.3477 171.37 37.1365 172.007 36.9292C171.401 37.2222 170.796 37.5112 170.191 37.7948C170.041 37.8687 169.886 37.9316 169.74 38.0146L169.3 38.2562L168.422 38.7385L167.982 38.9764C167.835 39.054 167.689 39.1331 167.549 39.2242L166.699 39.7499L165.851 40.2743C165.708 40.3579 165.573 40.457 165.437 40.5523L165.03 40.8391L164.216 41.4116L163.808 41.6959C163.673 41.7913 163.546 41.8987 163.415 41.9994L161.854 43.2248L160.363 44.5295C160.11 44.74 159.879 44.9765 159.643 45.2067L158.936 45.8979C157.073 47.758 155.381 49.7749 153.877 51.9147C152.392 54.0697 151.112 56.3521 150.047 58.7212L149.656 59.613L149.46 60.0585L149.291 60.515C149.069 61.1246 148.837 61.7297 148.623 62.3406L148.056 64.1972C147.869 64.8154 147.719 65.4392 147.586 66.0593C147.321 67.3003 147.163 68.5399 147.148 69.7485C147.148 70.9537 147.299 72.1293 147.683 73.1992C147.771 73.4766 147.886 73.7114 147.994 73.9594L148.186 74.319C148.247 74.4403 148.33 74.5509 148.4 74.6679C148.701 75.1223 149.042 75.5611 149.446 75.9294C149.844 76.3008 150.278 76.6286 150.739 76.8863C151.202 77.1348 151.684 77.3157 152.166 77.4164C152.648 77.5257 153.127 77.5245 153.59 77.4512C153.705 77.4325 153.822 77.421 153.937 77.3842C154.054 77.3586 154.168 77.3181 154.282 77.2792C154.397 77.2426 154.508 77.1879 154.622 77.1434C154.732 77.0842 154.847 77.0404 154.956 76.9725C155.396 76.7269 155.819 76.4056 156.204 76.0196C156.592 75.6377 156.945 75.1983 157.256 74.7233C157.417 74.4886 157.559 74.2388 157.692 73.9973C157.818 73.7479 157.943 73.4964 158.046 73.2328C158.261 72.7108 158.418 72.1606 158.529 71.6034C158.64 71.0454 158.69 70.4776 158.691 69.9159C158.685 69.355 158.628 68.7989 158.509 68.2684C158.277 67.2026 157.783 66.2516 157.069 65.541C156.709 65.1911 156.295 64.8867 155.825 64.6478C155.355 64.411 154.842 64.2224 154.298 64.0939C153.203 63.8418 152.014 63.8113 150.821 63.9587C150.227 64.0398 149.635 64.1505 149.051 64.3035C148.469 64.4646 147.891 64.6511 147.329 64.8878C146.204 65.3561 145.13 65.9745 144.126 66.7073C143.624 67.073 143.136 67.464 142.672 67.8866C142.435 68.0919 142.214 68.3157 141.986 68.5322C141.768 68.7593 141.542 68.979 141.333 69.2163C140.48 70.1477 139.706 71.1609 139.016 72.2336C138.332 73.3106 137.731 74.4449 137.225 75.6229C136.975 76.2142 136.74 76.8067 136.546 77.4258L136.248 78.352L135.988 79.2925C135.946 79.4498 135.898 79.6053 135.862 79.7644L135.752 80.2414C135.682 80.5603 135.597 80.8761 135.539 81.1983L135.358 82.1642C135.296 82.4863 135.257 82.8127 135.203 83.1371C135.151 83.4617 135.101 83.7871 135.066 84.1149L134.949 85.0976C134.892 85.756 134.824 86.414 134.787 87.0766C134.691 88.3999 134.663 89.7313 134.642 91.0661C134.621 92.4012 134.649 93.7397 134.677 95.0797C134.697 96.4207 134.748 97.7619 134.775 99.1056L134.774 99.1047Z" fill="#FFA708"/>
<path d="M127.043 126.848C126.459 125.596 125.9 124.335 125.32 123.083C125.036 122.455 124.754 121.826 124.464 121.201C124.175 120.575 123.895 119.946 123.599 119.324C122.438 116.827 121.244 114.351 119.984 111.919C118.734 109.481 117.391 107.1 115.947 104.796L115.406 103.932C115.318 103.787 115.224 103.645 115.127 103.506L114.844 103.084L114.277 102.239C114.085 101.96 113.907 101.671 113.702 101.402L112.506 99.7638C112.311 99.4876 112.088 99.2337 111.882 98.9664L111.255 98.1735C110.847 97.6359 110.395 97.1376 109.955 96.6295L109.293 95.8691C109.186 95.7399 109.068 95.6204 108.951 95.4999L108.602 95.1377L107.906 94.4123C107.673 94.172 107.45 93.9206 107.201 93.6976L105.74 92.323C105.617 92.2039 105.499 92.1036 105.38 92.0001C105.259 91.8992 105.139 91.7961 105.015 91.6989C104.77 91.5004 104.517 91.3125 104.261 91.1315C103.748 90.7707 103.218 90.4446 102.677 90.1643C101.6 89.6107 100.45 89.2532 99.4617 89.2996C98.9693 89.3233 98.527 89.4346 98.1326 89.6452C97.9385 89.7499 97.7366 89.8771 97.5729 90.0264C97.4059 90.176 97.2444 90.3368 97.106 90.533C96.5339 91.2983 96.2097 92.4271 96.114 93.5996C95.9125 96.0034 96.4671 98.5093 97.6876 100.606C97.8363 100.871 98.0008 101.125 98.1665 101.378L98.4286 101.748C98.5167 101.867 98.6071 101.977 98.6954 102.092C99.0615 102.541 99.4762 102.95 99.9184 103.3C100.802 104.002 101.811 104.435 102.711 104.437C102.824 104.437 102.935 104.423 103.047 104.422C103.156 104.4 103.268 104.388 103.375 104.366C103.478 104.331 103.586 104.315 103.688 104.274L103.84 104.212L103.917 104.183L103.991 104.143C104.388 103.944 104.762 103.639 105.082 103.254C105.725 102.485 106.134 101.407 106.197 100.357C106.198 100.225 106.211 100.1 106.206 99.9603C106.197 99.8206 106.202 99.6811 106.185 99.5405C106.161 99.2597 106.123 98.9772 106.064 98.694C105.949 98.1277 105.768 97.5592 105.536 96.9956C105.067 95.8688 104.408 94.7628 103.654 93.6861C102.9 92.605 102.069 91.577 101.188 90.5905C100.312 89.5986 99.3578 88.6742 98.3606 87.7972C94.3665 84.2903 89.5465 81.6689 84.3641 80.162C83.0714 79.7709 81.749 79.4799 80.4161 79.2376C79.7499 79.11 79.0774 79.0241 78.4041 78.9309C77.7289 78.8632 77.0527 78.7822 76.3728 78.744C75.0143 78.6579 73.6454 78.6311 72.2781 78.7125C70.9091 78.7764 69.5424 78.9334 68.1777 79.1488C69.5007 78.7516 70.8567 78.4575 72.2283 78.2298L73.2612 78.0838L74.3001 77.9782C74.6467 77.9367 74.9948 77.9277 75.3429 77.9017L75.8656 77.8687L76.3889 77.8546C76.7378 77.8496 77.088 77.8277 77.4373 77.8366L78.4869 77.8529C79.1856 77.8894 79.8866 77.9193 80.5843 77.9922C81.9804 78.127 83.3745 78.3314 84.7501 78.6327C90.2597 79.8077 95.5276 82.2884 99.983 85.8644C101.093 86.762 102.163 87.7168 103.156 88.7511C104.15 89.7842 105.086 90.8764 105.948 92.0291C106.81 93.1813 107.626 94.4253 108.246 95.8336C108.864 97.2413 109.289 98.8068 109.238 100.503C109.207 101.354 109.04 102.188 108.749 102.982C108.458 103.776 108.046 104.535 107.496 105.219C106.947 105.901 106.25 106.509 105.421 106.939L105.267 107.021L105.105 107.091L104.78 107.226C104.562 107.313 104.331 107.369 104.105 107.436C103.877 107.489 103.646 107.524 103.416 107.563C103.185 107.58 102.952 107.604 102.721 107.606C101.792 107.61 100.9 107.4 100.103 107.075C99.3032 106.749 98.5891 106.309 97.9474 105.809C97.3061 105.306 96.7336 104.743 96.2249 104.127C96.1019 103.97 95.9734 103.813 95.8568 103.656L95.519 103.184C95.3055 102.862 95.0927 102.539 94.905 102.202C94.5231 101.532 94.1923 100.834 93.9141 100.117C93.6399 99.3983 93.4207 98.6594 93.2549 97.9088C92.9202 96.4069 92.8207 94.8556 92.9629 93.3101C93.0395 92.5265 93.189 91.7362 93.4472 90.9491C93.7062 90.1644 94.0796 89.376 94.6279 88.658C94.8964 88.2973 95.2225 87.9645 95.5758 87.6644C95.9316 87.3599 96.3169 87.1167 96.7324 86.9031C97.5616 86.474 98.4996 86.2802 99.3818 86.2638C99.824 86.2579 100.256 86.2929 100.675 86.3572C101.091 86.4249 101.493 86.5229 101.882 86.6396C102.658 86.878 103.377 87.1991 104.054 87.5646C104.729 87.9338 105.366 88.3467 105.964 88.8002C106.264 89.0267 106.557 89.26 106.84 89.5043C106.983 89.6245 107.121 89.7506 107.26 89.8749C107.397 90.002 107.537 90.1296 107.658 90.2545C109.715 92.2172 111.557 94.3781 113.243 96.6346C114.935 98.8906 116.412 101.285 117.758 103.733C118.094 104.346 118.436 104.955 118.743 105.581C119.056 106.204 119.38 106.821 119.68 107.45L120.562 109.341C120.854 109.972 121.125 110.611 121.402 111.248C122.49 113.802 123.501 116.38 124.417 118.989C124.652 119.639 124.872 120.294 125.1 120.946C125.327 121.598 125.551 122.251 125.768 122.907C126.199 124.219 126.632 125.529 127.043 126.848H127.043Z" fill="#E04949"/>
<path d="M108.05 137.722C106.659 137.39 105.289 136.976 103.909 136.627C102.534 136.268 101.151 135.947 99.7667 135.794C98.389 135.651 96.9941 135.66 95.7587 136.066C94.553 136.466 93.4012 137.275 93.0316 138.307L92.9613 138.506C92.9412 138.574 92.9275 138.646 92.9091 138.715L92.8824 138.819L92.8655 138.928L92.8311 139.145C92.8064 139.445 92.7891 139.749 92.8149 140.068C92.849 140.701 92.9771 141.36 93.133 142.024C93.4489 143.357 93.8881 144.716 94.2218 146.168C94.386 146.894 94.528 147.647 94.584 148.44C94.5984 148.638 94.6019 148.841 94.6086 149.042C94.6024 149.247 94.6078 149.45 94.5892 149.659C94.5725 149.867 94.5581 150.075 94.5203 150.287C94.503 150.391 94.4895 150.5 94.4679 150.6L94.3999 150.896C94.043 152.48 93.2784 153.949 92.2459 155.185C91.7327 155.808 91.1383 156.362 90.494 156.854C89.8474 157.342 89.1474 157.77 88.3947 158.101C87.6436 158.43 86.8359 158.668 86.0431 158.808C85.2457 158.95 84.4481 159.005 83.6684 159.005C82.1067 159.001 80.6192 158.793 79.1965 158.567C77.7738 158.343 76.4029 158.106 75.0874 158.016C73.7737 157.927 72.5242 157.988 71.4058 158.329L71.1963 158.393C71.1269 158.415 71.0601 158.444 70.992 158.469L70.7882 158.545L70.5933 158.636C70.4649 158.7 70.3306 158.75 70.2059 158.821L69.8319 159.037C69.3455 159.348 68.8867 159.714 68.4688 160.138C68.0589 160.572 67.6786 161.045 67.3397 161.559C67.0107 162.081 66.7168 162.632 66.4644 163.209C66.2222 163.791 66.0124 164.391 65.849 165.006C65.694 165.625 65.5699 166.247 65.4955 166.887C65.3393 168.16 65.3534 169.444 65.5848 170.653C65.8119 171.859 66.2698 172.997 66.9447 173.922C67.602 174.828 68.5495 175.576 69.5903 176.006C70.6322 176.44 71.7565 176.537 72.7368 176.237C73.6383 175.978 74.4861 175.21 74.9541 174.261C75.1905 173.789 75.3286 173.277 75.357 172.789C75.3846 172.299 75.2965 171.839 75.0946 171.439L75.0133 171.291L74.9082 171.142L74.8056 170.989C74.7732 170.937 74.7246 170.899 74.6857 170.852C74.6033 170.762 74.5294 170.664 74.4283 170.59C74.3324 170.511 74.2482 170.419 74.1351 170.355C73.7213 170.058 73.2077 169.838 72.6399 169.686C72.0725 169.532 71.4502 169.454 70.8118 169.431C70.173 169.407 69.5165 169.435 68.8566 169.501C68.5257 169.534 68.1972 169.58 67.8631 169.631L66.8365 169.813C66.4945 169.875 66.1503 169.928 65.8095 169.997L64.7897 170.221C64.4504 170.299 64.1073 170.363 63.7705 170.452L62.7598 170.719L62.2539 170.853C62.0849 170.896 61.9161 170.94 61.7503 170.994L60.7488 171.299C58.0829 172.131 55.4758 173.18 52.9641 174.439C50.4491 175.693 48.0329 177.161 45.7311 178.807C45.584 178.906 45.4414 179.01 45.3017 179.119L44.8783 179.439L44.0304 180.08C43.4732 180.518 42.9344 180.98 42.3821 181.428C41.8429 181.89 41.3152 182.367 40.7793 182.837L39.2305 184.314C39.6831 183.763 40.1356 183.208 40.5997 182.663C41.0821 182.135 41.5586 181.599 42.0494 181.074C42.558 180.57 43.0604 180.055 43.5807 179.559L44.3759 178.831L44.7743 178.466C44.9059 178.343 45.0405 178.223 45.1796 178.109C47.3546 176.22 49.716 174.534 52.2085 173.055C54.7042 171.582 57.3349 170.321 60.0652 169.304L61.0912 168.927C61.4316 168.795 61.7836 168.699 62.1299 168.585L63.1735 168.255C63.5214 168.145 63.8767 168.06 64.2281 167.961L65.2859 167.675C65.6399 167.585 65.998 167.511 66.3541 167.429L67.4249 167.19C67.793 167.118 68.1689 167.05 68.546 166.998C69.3014 166.891 70.0712 166.825 70.8585 166.823C71.6449 166.822 72.4515 166.883 73.2707 167.068C74.0867 167.251 74.9213 167.563 75.6879 168.069C75.8846 168.184 76.0614 168.338 76.2425 168.483C76.4285 168.623 76.5878 168.796 76.7505 168.966C76.8293 169.052 76.9174 169.132 76.9869 169.226L77.198 169.507C77.2673 169.602 77.3376 169.695 77.4045 169.793L77.5916 170.107C78.0659 170.966 78.2751 171.951 78.252 172.885C78.2323 173.824 77.9935 174.719 77.6147 175.532C77.2331 176.346 76.7046 177.085 76.0408 177.71C75.3794 178.332 74.5674 178.844 73.658 179.138C72.7907 179.425 71.8707 179.532 70.9823 179.474C70.0923 179.418 69.2321 179.211 68.4302 178.893C66.8275 178.252 65.4366 177.189 64.3957 175.805C63.3764 174.429 62.7627 172.848 62.4518 171.258C62.142 169.664 62.124 168.061 62.3106 166.504C62.4041 165.728 62.5605 164.949 62.7577 164.186C62.9633 163.423 63.2271 162.675 63.5378 161.942C63.8597 161.213 64.2393 160.504 64.6764 159.822C65.1261 159.147 65.6379 158.502 66.221 157.911C66.8117 157.326 67.4776 156.803 68.2007 156.359L68.7577 156.048C68.9446 155.947 69.1441 155.868 69.3375 155.778L69.6303 155.65L69.9286 155.542C70.0284 155.507 70.1273 155.468 70.2278 155.437L70.5306 155.348C71.3395 155.114 72.1641 154.988 72.97 154.939C73.7769 154.888 74.566 154.92 75.3304 154.989C76.8598 155.13 78.2979 155.417 79.6868 155.666C81.0744 155.914 82.4162 156.145 83.7098 156.184C84.3557 156.204 84.9873 156.178 85.5975 156.089C86.2124 156 86.7844 155.844 87.3507 155.628C87.9148 155.408 88.4523 155.107 88.9573 154.757C89.4603 154.405 89.9352 154 90.3474 153.536C90.7621 153.075 91.128 152.57 91.4378 152.034C91.7512 151.498 91.9813 150.92 92.1508 150.329L92.2145 150.106C92.2348 150.033 92.2442 149.965 92.2601 149.894C92.294 149.756 92.3096 149.609 92.3294 149.462C92.3514 149.317 92.3523 149.162 92.3662 149.011C92.3675 148.856 92.3735 148.702 92.3696 148.544C92.3541 147.912 92.2772 147.251 92.1627 146.58C91.9377 145.233 91.5665 143.852 91.3181 142.388C91.1965 141.655 91.0956 140.9 91.1031 140.105C91.0989 139.711 91.1426 139.302 91.2078 138.895C91.2928 138.486 91.4004 138.073 91.592 137.682C91.7789 137.293 92.0156 136.919 92.3114 136.607C92.4509 136.442 92.6132 136.306 92.772 136.167C92.9312 136.029 93.0942 135.925 93.2554 135.804C93.9205 135.359 94.6646 135.043 95.4229 134.861C96.1819 134.674 96.9511 134.628 97.7008 134.648C98.4518 134.67 99.1866 134.774 99.9041 134.92C101.339 135.217 102.709 135.672 104.054 136.166C105.396 136.673 106.715 137.212 108.05 137.721L108.05 137.722Z" fill="#1FA78E"/>
<path d="M76.6406 106.112C74.7627 105.434 72.8949 104.736 71.019 104.104C69.1406 103.48 67.2511 102.926 65.3443 102.548C63.4377 102.169 61.5241 101.971 59.626 102.026C57.7332 102.09 55.8636 102.381 54.1341 102.996C53.2701 103.302 52.4431 103.686 51.6702 104.147C50.8832 104.601 50.1911 105.122 49.7404 105.689C49.5162 105.974 49.3577 106.257 49.2567 106.563C49.1554 106.865 49.1075 107.175 49.121 107.5C49.139 108.149 49.4043 108.863 49.834 109.528C50.2634 110.193 50.8434 110.813 51.4963 111.332C51.8244 111.59 52.1716 111.824 52.5291 112.025C52.618 112.075 52.71 112.122 52.7981 112.169C52.8817 112.205 52.96 112.25 53.0466 112.283C53.2147 112.356 53.3896 112.416 53.5617 112.465C53.9067 112.567 54.2466 112.608 54.4987 112.595C54.5331 112.596 54.5597 112.591 54.5861 112.587C54.6123 112.582 54.6418 112.581 54.6657 112.577C54.7037 112.562 54.757 112.561 54.7778 112.544C54.8448 112.526 54.8527 112.503 54.87 112.493C54.8715 112.488 54.875 112.485 54.881 112.484C54.8853 112.48 54.8851 112.469 54.8907 112.465C54.9058 112.454 54.9058 112.446 54.9149 112.428C54.9307 112.393 54.9522 112.315 54.9622 112.198C54.9729 112.083 54.9697 111.93 54.9514 111.76L54.9131 111.495C54.9028 111.407 54.8742 111.32 54.8574 111.231C54.5478 109.82 53.4282 108.483 52.0347 107.649L51.9051 107.569L51.7712 107.496C51.6802 107.449 51.5973 107.396 51.4999 107.352L51.2164 107.215L50.925 107.091C50.5322 106.931 50.1238 106.795 49.703 106.681C48.8584 106.457 47.9669 106.327 47.049 106.255C46.1334 106.182 45.1849 106.181 44.2372 106.213C44.0002 106.217 43.7645 106.239 43.528 106.25C43.2916 106.264 43.0548 106.275 42.8195 106.299L42.1118 106.361L41.4072 106.447L41.0549 106.491L40.7048 106.548C40.4716 106.587 40.2368 106.619 40.0047 106.663C39.5416 106.757 39.0759 106.843 38.618 106.958C38.1551 107.058 37.7028 107.191 37.2468 107.315C37.0196 107.38 36.7972 107.458 36.5718 107.528L36.2344 107.636L35.9023 107.758C35.0107 108.069 34.1494 108.453 33.3034 108.87C32.4596 109.292 31.6586 109.788 30.8718 110.31C30.1019 110.857 29.364 111.439 28.6796 112.092C28.0022 112.749 27.3473 113.443 26.7786 114.208L26.5571 114.489L26.3528 114.783C26.2178 114.98 26.0769 115.173 25.9454 115.373C25.6989 115.782 25.4348 116.185 25.2169 116.612L25.0452 116.93L24.959 117.088L24.8829 117.252L24.5782 117.907C24.4754 118.126 24.4002 118.355 24.3066 118.578L24.1721 118.915C24.1276 119.028 24.0957 119.145 24.0566 119.259L23.832 119.952L23.6514 120.659C23.5833 120.894 23.5422 121.134 23.4979 121.374L23.4303 121.735C23.4063 121.855 23.3849 121.976 23.3729 122.097C23.2212 123.069 23.2067 124.058 23.2365 125.058C23.1467 124.569 23.0218 124.078 22.9867 123.576L22.9458 123.201C22.9322 123.075 22.916 122.949 22.9152 122.823L22.8887 122.065C22.8805 121.938 22.8866 121.811 22.893 121.685L22.9096 121.304C22.9204 121.05 22.9281 120.795 22.9635 120.543L23.0524 119.782L23.1923 119.029C23.2176 118.903 23.2359 118.776 23.2671 118.652L23.3616 118.279C23.4275 118.032 23.4832 117.779 23.563 117.536L23.8037 116.802L23.8647 116.619L23.9359 116.44L24.0785 116.08C24.2562 115.594 24.4954 115.137 24.7143 114.667C24.8327 114.437 24.9613 114.213 25.085 113.985L25.2729 113.644L25.4793 113.314C26.0144 112.423 26.6584 111.6 27.3372 110.805L27.8674 110.226C28.0444 110.032 28.241 109.858 28.4275 109.673C28.7982 109.298 29.2064 108.974 29.6009 108.627C31.2305 107.312 33.0495 106.227 34.9763 105.411L35.337 105.255L35.7026 105.114C35.947 105.022 36.1897 104.922 36.4362 104.836C36.9309 104.669 37.4247 104.494 37.9278 104.355C38.4274 104.199 38.9361 104.084 39.4431 103.958C39.6971 103.898 39.9532 103.85 40.2085 103.796L40.5919 103.717L40.9771 103.65C42.0035 103.46 43.0407 103.348 44.0799 103.269C45.1183 103.201 46.1619 103.167 47.2321 103.217C48.2996 103.26 49.3872 103.404 50.4721 103.665C51.5591 103.939 52.629 104.326 53.6539 104.925C54.1627 105.219 54.6422 105.562 55.0901 105.947C55.5373 106.332 55.962 106.75 56.3369 107.22C56.7133 107.688 57.0508 108.197 57.3346 108.744C57.6151 109.293 57.8355 109.885 57.9813 110.501C58.0131 110.657 58.0541 110.81 58.0751 110.968L58.1389 111.442C58.1702 111.766 58.1833 112.113 58.1472 112.493C58.1109 112.871 58.0273 113.285 57.842 113.706C57.7501 113.914 57.6338 114.128 57.4929 114.313C57.4231 114.407 57.3565 114.502 57.2779 114.59C57.196 114.677 57.1114 114.762 57.0249 114.844C56.6729 115.163 56.2503 115.411 55.8427 115.545C55.6337 115.627 55.4387 115.662 55.2362 115.708C55.138 115.725 55.0433 115.735 54.9464 115.747C54.8495 115.759 54.7528 115.77 54.6627 115.771C53.9207 115.8 53.2636 115.686 52.6581 115.498C52.3542 115.405 52.0604 115.295 51.7746 115.165C51.6301 115.105 51.4907 115.028 51.3494 114.959C51.2189 114.887 51.0909 114.818 50.9648 114.743C50.4613 114.447 49.9875 114.114 49.5413 113.748C48.6543 113.012 47.8629 112.151 47.2486 111.121C46.9433 110.606 46.6749 110.054 46.486 109.45C46.2965 108.85 46.1747 108.203 46.1793 107.531C46.175 107.197 46.2133 106.858 46.2701 106.524C46.3377 106.191 46.4249 105.86 46.554 105.548C46.7974 104.92 47.1688 104.344 47.585 103.869C48.0041 103.394 48.4658 102.999 48.9358 102.665C49.171 102.498 49.4084 102.343 49.6464 102.199C49.8834 102.052 50.1255 101.933 50.3658 101.803C51.3318 101.299 52.3433 100.9 53.3738 100.6C54.4035 100.294 55.4579 100.116 56.5077 100.006C57.5585 99.899 58.6098 99.8736 59.6515 99.9268C61.7344 100.027 63.7795 100.436 65.7286 101.028C67.6795 101.629 69.548 102.408 71.3544 103.281C73.162 104.153 74.9081 105.122 76.6405 106.113L76.6406 106.112Z" fill="#4754A6"/>
<path d="M110.366 64.4549C109.387 63.9166 108.428 63.3405 107.497 62.7061C107.032 62.3873 106.583 62.0439 106.144 61.6822C105.706 61.3207 105.281 60.9363 104.882 60.521C104.074 59.7012 103.382 58.7392 102.837 57.7023C102.289 56.6653 101.901 55.551 101.617 54.4225C101.061 52.1558 100.939 49.8372 100.943 47.5741C100.945 46.4391 100.974 45.3232 101.031 44.1824C101.097 43.0431 101.186 41.8887 101.39 40.7277C101.483 40.1471 101.616 39.5657 101.76 38.9852C101.921 38.4063 102.091 37.8259 102.316 37.2567C102.419 36.9698 102.551 36.6903 102.673 36.4085C102.813 36.1316 102.934 35.8539 103.098 35.5781L103.335 35.1651L103.594 34.7675L103.725 34.5693L103.867 34.3788L104.152 33.9986C104.557 33.5122 104.977 33.0342 105.46 32.6145C105.691 32.3936 105.951 32.2022 106.201 32.0012C106.33 31.9048 106.466 31.8162 106.598 31.724C106.732 31.6324 106.864 31.5399 107.007 31.4602L107.43 31.2134C107.573 31.1345 107.724 31.0659 107.871 30.9925C108.162 30.8394 108.48 30.7307 108.788 30.6067C108.946 30.552 109.109 30.5068 109.27 30.4574L109.512 30.3858C109.594 30.3644 109.678 30.3491 109.761 30.331L110.261 30.2288L110.773 30.1694L111.029 30.1431L111.289 30.1378C111.462 30.1355 111.635 30.1312 111.808 30.1338L112.328 30.1773C112.415 30.1864 112.5 30.1921 112.589 30.2047L112.864 30.253C113.594 30.3909 114.278 30.6671 114.898 31.0201C115.513 31.3813 116.072 31.8188 116.552 32.3272C117.036 32.8324 117.449 33.4018 117.78 34.0278C118.114 34.6507 118.353 35.3395 118.481 36.0699C118.543 36.4359 118.571 36.8139 118.568 37.1963C118.555 37.5802 118.517 37.9683 118.425 38.3519C118.251 39.1178 117.893 39.8607 117.416 40.468C117.181 40.7802 116.9 41.0573 116.606 41.312C116.308 41.5633 115.985 41.7768 115.652 41.9632C114.98 42.3233 114.265 42.5454 113.558 42.6538C112.849 42.7642 112.145 42.7654 111.459 42.6844C110.773 42.6016 110.104 42.4378 109.462 42.1913C108.82 41.9493 108.205 41.6197 107.633 41.2116C105.355 39.4738 104.296 36.9804 103.776 34.6156C103.514 33.4232 103.389 32.2391 103.319 31.0726C103.252 29.9079 103.256 28.7556 103.302 27.5999C103.342 26.4455 103.45 25.2955 103.595 24.1523C103.741 23.0088 103.958 21.8762 104.202 20.7521C105.216 16.2686 107.044 11.9451 109.766 8.25234C110.455 7.33718 111.183 6.45412 111.97 5.62678C112.767 4.80838 113.602 4.03207 114.494 3.32768C115.392 2.63162 116.329 1.994 117.302 1.42498C118.29 0.879882 119.304 0.393985 120.35 0C119.384 0.562966 118.449 1.16182 117.569 1.83017C116.693 2.50185 115.862 3.22351 115.084 3.99346C114.317 4.77658 113.592 5.59226 112.92 6.44897C112.256 7.31144 111.641 8.20782 111.075 9.13252C108.825 12.8442 107.396 17.0001 106.677 21.2437C106.503 22.3064 106.353 23.3725 106.273 24.445C106.186 25.5161 106.123 26.5889 106.131 27.6615C106.131 28.7319 106.174 29.8084 106.26 30.8655C106.353 31.9187 106.496 32.9527 106.742 33.9297C106.981 34.9099 107.32 35.8292 107.771 36.6471C107.896 36.8413 108.004 37.0501 108.142 37.2304C108.209 37.3225 108.27 37.4198 108.34 37.5083L108.555 37.7699C108.622 37.8609 108.704 37.9365 108.78 38.0185L108.895 38.1403C108.934 38.1827 108.972 38.2217 109.008 38.2525C109.149 38.3912 109.313 38.5129 109.477 38.634C110.149 39.1045 110.988 39.4231 111.829 39.5151C112.669 39.6114 113.507 39.4814 114.123 39.1426C114.275 39.056 114.42 38.9638 114.548 38.8568C114.673 38.7461 114.796 38.6346 114.894 38.5005C114.948 38.4378 114.992 38.3639 115.04 38.2968C115.078 38.2254 115.126 38.1586 115.156 38.0841C115.231 37.9415 115.279 37.7878 115.319 37.63C115.479 37.0001 115.341 36.2127 114.973 35.4887C114.61 34.761 114.008 34.1149 113.327 33.7007C112.984 33.4991 112.623 33.3458 112.259 33.2718L112.123 33.2444C112.074 33.2368 112.02 33.2339 111.969 33.2279L111.658 33.1903L111.342 33.1856L111.184 33.1815L111.025 33.1955L110.706 33.2206L110.387 33.2781C110.334 33.2881 110.28 33.2943 110.227 33.3067L110.068 33.3507C109.962 33.3808 109.854 33.4049 109.748 33.4377C109.54 33.5198 109.324 33.5782 109.12 33.6824C109.017 33.731 108.911 33.7727 108.81 33.8254L108.507 33.9918C108.403 34.0431 108.307 34.1087 108.209 34.1721C108.111 34.2364 108.011 34.2957 107.915 34.3633C107.73 34.5085 107.53 34.6342 107.353 34.7949C106.981 35.0895 106.652 35.441 106.328 35.7945L106.101 36.0745L105.987 36.2141L105.883 36.3607L105.673 36.6538L105.483 36.9586C105.351 37.1548 105.242 37.3862 105.12 37.6L104.957 37.9368C104.9 38.0482 104.846 38.161 104.798 38.2777C104.589 38.7341 104.421 39.2167 104.258 39.7029C104.11 40.1962 103.967 40.6947 103.858 41.2095C103.628 42.2333 103.47 43.2961 103.343 44.3747C103.222 45.4537 103.127 46.5617 103.042 47.6519C102.886 49.8328 102.83 52.0029 103.155 54.1101C103.314 55.1625 103.576 56.195 103.971 57.1772C104.362 58.1619 104.897 59.0846 105.552 59.9436C106.203 60.8053 106.976 61.5898 107.796 62.3283C108.611 63.0766 109.49 63.7628 110.366 64.4554L110.366 64.4549Z" fill="#863FBF"/>
</svg>
