<svg width="29" height="32" viewBox="0 0 29 32" fill="none" xmlns="http://www.w3.org/2000/svg">
<path d="M27.9818 17.7307L22.7079 20.688L17.9776 16.0306L22.7456 11.3359L27.9818 14.2719C28.2909 14.4451 28.548 14.6964 28.7269 15.0003C28.9057 15.3041 29 15.6495 29 16.0013C29 16.3531 28.9057 16.6985 28.7269 17.0023C28.548 17.3062 28.2909 17.5575 27.9818 17.7307ZM0.150722 1.23172C0.051322 1.47208 0.000127998 1.72932 0 1.98907V30.0122C0 30.3015 0.0605579 30.5709 0.166871 30.8122L15.1785 16.0293L0.150722 1.23172ZM16.5781 14.6519L20.9625 10.3345L2.99426 0.259706C2.60897 0.040812 2.16056 -0.0432561 1.72119 0.0210351L16.5781 14.6519ZM16.5781 17.408L1.77502 31.9856C2.17605 32.0336 2.59861 31.9642 2.99426 31.7416L20.9248 21.6881L16.5781 17.408Z" fill="#FDFDFD"/>
</svg>
