<svg width="32" height="32" viewBox="0 0 32 32" fill="none" xmlns="http://www.w3.org/2000/svg">
<path d="M30.6209 20.4189C30.3819 20.0979 30.0479 19.8599 29.6609 19.7469L29.6479 19.7439C29.4829 19.6969 29.2909 19.6649 29.0929 19.6559H29.0869C28.8769 19.6439 28.6679 19.6449 28.4579 19.6449H24.3079L18.8229 9.87691C18.1259 10.6069 17.6429 11.5479 17.4799 12.5949L17.4759 12.6239C17.4319 12.8919 17.4069 13.2019 17.4069 13.5169C17.4069 14.5669 17.6859 15.5519 18.1729 16.4019L18.1579 16.3739L24.7489 28.1119C24.8539 28.2989 24.9579 28.4859 25.0729 28.6659C25.1799 28.8379 25.2969 28.9859 25.4279 29.1219L25.4269 29.1209C25.7019 29.4009 26.0659 29.5919 26.4729 29.6489L26.4829 29.6499C26.5529 29.6599 26.6349 29.6649 26.7169 29.6649C27.0559 29.6649 27.3719 29.5709 27.6419 29.4079L27.6339 29.4129C27.9829 29.2019 28.2519 28.8899 28.4049 28.5189L28.4099 28.5069C28.4999 28.2919 28.5519 28.0409 28.5519 27.7789C28.5519 27.6099 28.5299 27.4449 28.4899 27.2889L28.4929 27.3029C28.4379 27.0949 28.3679 26.9149 28.2799 26.7449L28.2869 26.7599C28.1929 26.5669 28.0869 26.3809 27.9819 26.1949L26.4619 23.4879H28.4559C28.6659 23.4879 28.8749 23.4889 29.0839 23.4769C29.2869 23.4679 29.4789 23.4359 29.6619 23.3849L29.6439 23.3889C30.0439 23.2719 30.3789 23.0339 30.6139 22.7179L30.6169 22.7129C30.8519 22.3969 30.9929 21.9989 30.9929 21.5689C30.9929 21.1389 30.8519 20.7399 30.6129 20.4189L30.6169 20.4239L30.6209 20.4189ZM4.89491 24.1749L3.90491 26.0499C3.80291 26.2439 3.69991 26.4369 3.60691 26.6379C3.52791 26.7989 3.45891 26.9869 3.40991 27.1819L3.40591 27.2019C3.36891 27.3509 3.34791 27.5219 3.34791 27.6969C3.34791 27.9689 3.39891 28.2299 3.49191 28.4689L3.48691 28.4539C3.63691 28.8489 3.90091 29.1729 4.23791 29.3929L4.24491 29.3979C4.49891 29.5629 4.80891 29.6609 5.14291 29.6609C5.22391 29.6609 5.30291 29.6549 5.37991 29.6439L5.37091 29.6449C5.78291 29.5819 6.13991 29.3829 6.40191 29.0959L6.40291 29.0949C6.52991 28.9559 6.64491 28.8009 6.74191 28.6349L6.74891 28.6219C6.86191 28.4339 6.96291 28.2399 7.06591 28.0459L8.50191 25.3259C7.94991 24.5059 7.02591 23.9739 5.97691 23.9739C5.58791 23.9739 5.21591 24.0469 4.87391 24.1809L4.89491 24.1749ZM12.0129 19.6479L19.6489 5.85591C19.7539 5.66691 19.8589 5.47891 19.9539 5.28291C20.0349 5.12591 20.1049 4.94291 20.1549 4.75191L20.1589 4.73291C20.1969 4.58791 20.2179 4.42191 20.2179 4.24991C20.2179 3.98391 20.1659 3.73091 20.0709 3.49891L20.0759 3.51191C19.9199 3.12391 19.6499 2.80791 19.3089 2.59791L19.3009 2.59291C19.0389 2.43191 18.7229 2.33691 18.3839 2.33691C18.3019 2.33691 18.2209 2.34291 18.1409 2.35391L18.1499 2.35291C17.7329 2.41191 17.3679 2.60591 17.0949 2.88791C16.9649 3.02391 16.8479 3.17591 16.7479 3.33791L16.7409 3.34991C16.6259 3.53291 16.5219 3.72191 16.4169 3.91091L15.9339 4.78291L15.4509 3.91091C15.3459 3.72191 15.2429 3.53191 15.1279 3.34991C15.0209 3.17591 14.9039 3.02491 14.7729 2.88791L14.7739 2.88891C14.5009 2.60591 14.1369 2.41191 13.7289 2.35391L13.7189 2.35291C13.6489 2.34291 13.5679 2.33791 13.4859 2.33791C13.1469 2.33791 12.8299 2.43291 12.5609 2.59791L12.5689 2.59391C12.2199 2.80891 11.9499 3.12491 11.7979 3.49991L11.7929 3.51291C11.7029 3.73191 11.6509 3.98491 11.6509 4.25091C11.6509 4.42191 11.6729 4.58891 11.7129 4.74691L11.7099 4.73291C11.7649 4.94291 11.8349 5.12591 11.9229 5.29891L11.9159 5.28291C12.0099 5.47791 12.1159 5.66691 12.2209 5.85591L13.7809 8.67291L7.70491 19.6479H3.54091C3.33191 19.6479 3.12191 19.6469 2.91291 19.6599C2.70991 19.6689 2.51791 19.7009 2.33491 19.7539L2.35291 19.7499C1.95191 19.8689 1.61791 20.1099 1.38391 20.4299L1.37991 20.4349C1.14491 20.7559 1.00391 21.1589 1.00391 21.5939C1.00391 22.0289 1.14491 22.4319 1.38391 22.7589L1.37991 22.7529C1.61691 23.0779 1.95091 23.3189 2.33891 23.4339L2.35191 23.4369C2.51691 23.4849 2.70891 23.5169 2.90591 23.5259H2.91191C3.12091 23.5379 3.33091 23.5369 3.53991 23.5369H19.9069C19.9519 23.4439 19.9939 23.3319 20.0279 23.2159L20.0319 23.1999C20.1099 22.9569 20.1549 22.6769 20.1549 22.3869C20.1549 20.8999 18.9699 19.6889 17.4929 19.6469H17.4889L12.0129 19.6479Z" fill="white"/>
</svg>
