<svg width="60" height="60" viewBox="0 0 60 60" fill="none" xmlns="http://www.w3.org/2000/svg">
<path d="M29.9901 3.729C15.129 3.729 3.08008 15.7762 3.08008 30.6389C3.08008 38.8413 6.74986 46.1861 12.5374 51.1212C13.0385 51.5491 13.5563 51.96 14.0896 52.3489C14.5566 52.6919 15.0356 53.0214 15.5246 53.3339C15.6639 53.4222 15.8014 53.5088 15.9423 53.5937C15.9559 53.6022 15.9696 53.6107 15.9831 53.6192C16.0188 53.6413 16.0544 53.6634 16.0901 53.6838C16.1393 53.7143 16.1886 53.7432 16.2396 53.7721C17.2738 54.3902 18.3521 54.9387 19.4695 55.4142C19.6157 55.4753 19.7599 55.5365 19.9077 55.5959C20.1302 55.686 20.3543 55.7743 20.5803 55.8557H20.5819C20.6821 55.8932 20.7823 55.9305 20.8825 55.9662C21.037 56.0222 21.1933 56.0765 21.3495 56.1292V56.1309C21.4429 56.1632 21.5347 56.1937 21.6281 56.2226H21.6297C21.7231 56.2531 21.8165 56.2837 21.9099 56.3126C22.0033 56.3432 22.0967 56.372 22.1901 56.3993C22.2852 56.4298 22.3803 56.4587 22.477 56.4858C22.6622 56.5402 22.849 56.5911 23.0375 56.6404C25.2554 57.233 27.5853 57.5489 29.9901 57.5489C32.6002 57.5489 35.122 57.177 37.508 56.4841C37.5946 56.4587 37.6795 56.4332 37.7662 56.4077C37.8749 56.3754 37.9818 56.3432 38.0888 56.3092C38.1703 56.2837 38.2517 56.2566 38.3333 56.2294C38.3724 56.2175 38.4114 56.2039 38.4505 56.1903C38.493 56.1785 38.5354 56.1632 38.5762 56.1495C38.6068 56.1394 38.639 56.1292 38.6696 56.1173C38.8037 56.0714 38.9379 56.0256 39.072 55.9764C39.1841 55.9373 39.2962 55.8965 39.4082 55.8541C39.461 55.8337 39.5153 55.8133 39.5679 55.7929C40.0655 55.6044 40.5546 55.4007 41.0368 55.1833C41.6925 54.8878 42.3343 54.5668 42.9609 54.2221V54.2204L42.9881 54.2051C43.2701 54.0489 43.5503 53.8875 43.8254 53.7194C44.1072 53.5513 44.3858 53.3781 44.6609 53.1981C45.0158 52.9688 45.364 52.7294 45.707 52.4814C46.1467 52.1656 46.5782 51.8361 46.9976 51.4931C53.0416 46.5598 56.8999 39.0486 56.8999 30.6389C56.8999 15.7762 44.8528 3.729 29.9901 3.729Z" fill="#ECC607"/>
<path d="M46.2955 20.5019C45.8832 19.9468 45.26 19.5701 44.8718 18.9965C44.1796 17.9701 44.3972 16.6108 44.2279 15.384C44.0148 13.8463 43.0772 12.3834 41.6754 11.7187C40.6409 11.2291 39.4464 11.1935 38.3117 11.3374C38.1021 11.364 37.8798 11.3939 37.6873 11.304C37.4628 11.1992 37.3406 10.9573 37.2243 10.7373C36.4376 9.24555 35.1497 7.98767 33.5658 7.4106C32.6144 7.06502 31.5581 6.9867 30.5709 7.1952C29.9155 7.33344 29.2899 7.59835 28.7463 7.99578C28.2612 8.35052 27.8167 8.81477 27.2281 8.93339C26.5749 9.06586 25.9311 8.73756 25.2906 8.55326C22.8774 7.85868 20.054 9.55428 19.5299 12.0136C19.47 12.2947 19.4309 12.5953 19.2522 12.8211C19.099 13.0135 18.8653 13.1218 18.6394 13.2174C17.7272 13.6055 16.7757 13.9131 15.914 14.4027C15.0512 14.8934 14.2657 15.6018 13.9259 16.5337C13.586 17.4656 13.798 18.6406 14.5998 19.2234C14.6516 20.6311 12.941 21.344 12.266 22.5801C11.7706 23.4866 11.8086 24.6604 12.3604 25.5336C12.7935 26.2177 13.5216 26.7465 13.6966 27.5378C13.8844 28.3833 13.3763 29.2047 13.0861 30.0214C12.7786 30.8888 12.729 31.907 13.221 32.6845C13.6264 33.3262 14.3313 33.7086 14.8381 34.273C15.5881 35.1059 15.845 36.2532 16.2169 37.3095C16.589 38.3669 17.203 39.4693 18.2663 39.8206C20.3236 40.5002 22.2357 37.9649 24.3944 38.1653C24.4433 38.1699 24.492 38.176 24.5406 38.1833C25.0378 38.5758 25.5667 38.9092 26.1216 39.1769C26.1135 39.2849 26.1069 39.3932 26.1011 39.5016C26.1007 39.5092 26.1003 39.5168 26.0998 39.5243C26.0957 39.6034 26.0918 39.6825 26.0883 39.7617C26.0871 39.7883 26.0856 39.8151 26.0844 39.8417C26.077 40.0413 26.0678 40.2391 26.058 40.4362C26.0563 40.4675 26.0549 40.499 26.0531 40.5302C26.0219 41.0835 25.935 41.6673 25.7514 42.1964C25.6604 42.4584 25.5466 42.7073 25.402 42.9315C25.3973 42.9388 25.3932 42.9466 25.3885 42.9538C25.3883 42.954 25.3882 42.9543 25.388 42.9545C25.2816 43.1161 25.1579 43.2629 25.0177 43.3937C24.8436 43.2435 24.6641 43.0972 24.4715 42.9614C24.1519 42.736 23.7564 43.1073 23.8422 43.4451C23.8842 43.6105 23.9483 43.7698 24.0269 43.924C23.6161 44.0291 23.1778 44.0431 22.7389 44.0278C22.5401 44.0209 22.3415 44.0107 22.1461 43.9989C20.5822 43.9173 18.8449 44.0141 17.7104 45.0959C16.734 46.0231 16.447 47.4479 16.2737 48.781C16.0683 50.3774 15.9562 51.9856 15.9425 53.5938C15.9562 53.6023 15.9698 53.6108 15.9833 53.6193C16.019 53.6413 16.0547 53.6634 16.0904 53.6838C16.1395 53.7143 16.1888 53.7433 16.2398 53.7721C17.274 54.3903 18.3523 54.9388 19.4697 55.4143C19.6159 55.4754 19.7601 55.5366 19.9079 55.596C20.1304 55.686 20.3545 55.7743 20.5805 55.8558H20.5821C20.6823 55.8932 20.7826 55.9306 20.8827 55.9663C21.0373 56.0223 21.1935 56.0766 21.3497 56.1293V56.1309C21.4431 56.1632 21.5349 56.1938 21.6283 56.2227H21.6299C21.7233 56.2532 21.8167 56.2838 21.9101 56.3127C22.0035 56.3433 22.0969 56.3721 22.1903 56.3993C22.2854 56.4298 22.3806 56.4588 22.4773 56.4859C22.6624 56.5403 22.8492 56.5912 23.0377 56.6405C25.2556 57.2331 27.5856 57.549 29.9903 57.549C32.6004 57.549 35.1222 57.1771 37.5082 56.4842C37.5949 56.4588 37.6798 56.4333 37.7664 56.4078C37.8751 56.3754 37.982 56.3432 38.089 56.3093C38.1706 56.2838 38.252 56.2567 38.3335 56.2295C38.3726 56.2176 38.4116 56.204 38.4508 56.1904C38.4932 56.1786 38.5356 56.1633 38.5764 56.1496C38.607 56.1395 38.6392 56.1293 38.6698 56.1174C38.804 56.0715 38.9382 56.0257 39.0722 55.9764C39.1843 55.9374 39.2965 55.8966 39.4085 55.8542C39.4612 55.8338 39.5155 55.8134 39.5681 55.793C40.0657 55.6045 40.5548 55.4008 41.0371 55.1834C41.6927 54.8879 42.3345 54.5669 42.9612 54.2222V54.2205L42.9883 54.2052C43.2703 54.049 43.5505 53.8876 43.8256 53.7195C44.1074 53.5514 44.386 53.3782 44.6611 53.1982C44.7631 52.4866 44.6849 51.753 44.5694 51.0397C44.3826 49.9003 44.1007 48.776 43.7271 47.684C43.3467 46.57 42.8186 45.4237 41.8301 44.7835C41.0099 44.2537 39.9943 44.1501 39.023 44.0295C38.6188 43.9786 38.2113 43.9208 37.8071 43.8478C36.9068 43.6829 36.023 43.4357 35.2313 43.02C35.3503 42.7811 35.4544 42.5346 35.5397 42.2806C35.7383 41.6894 34.7891 41.2738 34.5199 41.8507C34.4369 42.0286 34.3453 42.2012 34.2495 42.3708C33.5669 41.7964 33.2108 41.1843 33.0504 40.526C33.0478 40.5149 33.0456 40.5035 33.043 40.4923C33.0226 40.4051 33.0052 40.317 32.9913 40.2281C32.978 40.1436 32.9691 40.0578 32.9611 39.9717C32.9583 39.942 32.9536 39.9129 32.9514 39.883C32.9491 39.8506 32.9486 39.8175 32.9468 39.7848C32.9427 39.7074 32.9391 39.6298 32.9384 39.5512C32.9381 39.5108 32.9394 39.4699 32.9399 39.4293C32.9409 39.3559 32.9418 39.2825 32.9453 39.2081C32.946 39.192 32.9465 39.176 32.9474 39.1598C32.9496 39.1153 32.9539 39.0698 32.957 39.025C33.29 38.8467 33.6116 38.6415 33.9231 38.4167C34.6984 38.5557 35.6141 38.4971 36.3097 38.2356C36.3845 38.2079 36.456 38.1769 36.525 38.1446C37.647 38.8427 39.2481 38.6365 40.1558 37.6758C41.0497 36.7324 41.2364 35.2798 42.1325 34.3387C42.7143 33.727 43.5287 33.4034 44.2244 32.9253C45.3568 32.1467 46.2045 30.792 45.973 29.4373C45.8589 28.7669 45.495 28.1495 45.4524 27.471C45.4039 26.7142 45.7588 25.9989 46.0755 25.3101C46.7806 23.7768 47.3001 21.8566 46.2955 20.5019Z" fill="#A85351"/>
<path d="M46.2956 20.5019C45.8832 19.9468 45.26 19.5701 44.8718 18.9965C44.1796 17.9701 44.3972 16.6108 44.2279 15.384C44.0148 13.8463 43.0772 12.3834 41.6754 11.7187C40.6409 11.2291 39.4464 11.1935 38.3117 11.3374C38.1021 11.364 37.8798 11.3939 37.6873 11.304C37.4628 11.1992 37.3406 10.9573 37.2243 10.7373C36.4376 9.24555 35.1497 7.98767 33.5658 7.4106C32.6144 7.06502 31.5581 6.9867 30.5709 7.1952C29.9155 7.33344 29.2899 7.59835 28.7463 7.99578C28.2613 8.35052 27.8167 8.81477 27.2281 8.93339C26.5749 9.06586 25.9311 8.73756 25.2906 8.55326C22.8774 7.85868 20.054 9.55428 19.5299 12.0136C19.47 12.2947 19.4309 12.5953 19.2522 12.8211C19.099 13.0135 18.8653 13.1218 18.6394 13.2174C17.7272 13.6055 16.7757 13.9131 15.914 14.4027C15.0512 14.8934 14.2657 15.6018 13.9259 16.5337C13.586 17.4656 13.798 18.6406 14.5998 19.2234C14.6516 20.6311 12.941 21.344 12.266 22.5801C11.7706 23.4866 11.8086 24.6604 12.3604 25.5336C12.7935 26.2177 13.5216 26.7465 13.6966 27.5378C13.8844 28.3833 13.3763 29.2047 13.0861 30.0214C12.7786 30.8888 12.729 31.907 13.221 32.6845C13.6264 33.3262 14.3313 33.7086 14.8381 34.273C15.5881 35.1059 15.845 36.2532 16.2169 37.3095C16.589 38.3669 17.203 39.4693 18.2663 39.8206C20.3236 40.5002 22.2357 37.9649 24.3944 38.1653C24.4433 38.1699 24.492 38.176 24.5406 38.1833C22.8764 36.8696 21.5703 34.9002 20.8458 32.5601C20.7655 32.6379 20.6715 32.708 20.5613 32.7686C20.2622 32.9333 19.9069 32.9554 19.5649 32.932C19.6611 33.0525 19.721 33.2032 19.721 33.3695C19.721 33.7589 19.4054 34.0745 19.0159 34.0745C18.6265 34.0745 18.3108 33.7589 18.3108 33.3695C18.3108 33.1149 18.4469 32.8938 18.6491 32.7699C17.9906 32.5857 17.3711 32.2608 16.8532 31.814C16.0497 31.1207 15.479 30.0326 15.7411 29.0042C15.9462 28.1992 16.6775 27.556 17.5021 27.4553C18.7179 27.3068 20.0273 28.3649 20.5843 29.3949C20.7733 29.7443 20.9904 30.2204 21.1203 30.7126C21.5174 30.4633 21.8035 30.0195 21.7859 29.5524C21.7633 28.9561 21.2821 28.4562 21.2364 27.8612C21.1628 26.9042 22.1621 26.2768 22.8054 25.5644C23.548 24.7423 23.7331 23.2717 23.4683 21.8721C24.3009 21.5612 25.1038 21.0337 25.8994 21.3521C26.6796 21.6643 26.9488 22.6186 27.5202 23.2349C28.0187 23.7726 28.7863 24.047 29.5125 23.9472C30.0808 23.8691 30.5957 23.5831 31.1359 23.3903C31.676 23.1976 32.3079 23.1066 32.7999 23.4016C33.201 23.6423 33.4237 24.086 33.7006 24.4632C34.4983 25.5499 35.8783 26.0877 37.2262 26.021C37.4382 27.1572 37.5541 28.2008 37.0502 29.4997C36.7862 30.1801 36.4591 31.0349 36.9653 31.5605C37.2426 31.8484 37.697 31.9086 38.0815 31.7994C38.1041 31.7929 38.126 31.7844 38.1483 31.777C37.453 34.609 35.9226 36.9736 33.9232 38.4167C34.6984 38.5558 35.6142 38.4972 36.3097 38.2357C36.3846 38.208 36.456 38.1769 36.525 38.1447C37.6471 38.8427 39.2481 38.6366 40.1558 37.6758C41.0498 36.7324 41.2364 35.2798 42.1326 34.3387C42.7143 33.7271 43.5288 33.4034 44.2244 32.9254C45.3568 32.1467 46.2046 30.792 45.973 29.4374C45.859 28.767 45.495 28.1495 45.4525 27.4711C45.404 26.7143 45.7589 25.999 46.0756 25.3101C46.7806 23.7768 47.3001 21.8566 46.2956 20.5019Z" fill="black"/>
<path d="M28.1564 30.5823C28.051 30.3421 27.9186 30.115 27.7618 29.9048C27.4398 29.4733 27.0241 29.1037 26.5454 28.8541C26.0265 28.5837 25.4099 28.4684 24.8276 28.5031C24.2559 28.5371 23.6016 28.6877 23.1505 29.0598C23.0075 29.1777 23.1125 29.42 23.2724 29.4492C23.265 29.4903 23.2592 29.5318 23.255 29.5732C23.1744 30.4072 23.6099 31.2504 24.2895 31.7399C24.4519 31.8574 24.627 31.9554 24.8113 32.0337C25.3931 32.2848 26.06 32.3436 26.6855 32.2272C27.0702 32.1569 27.4527 32.0176 27.743 31.7549C27.9368 31.5793 28.0468 31.3911 28.0933 31.1982C28.1224 31.2537 28.1543 31.3073 28.1923 31.3564C28.2263 31.4004 28.309 31.3754 28.3187 31.3231C28.3648 31.0753 28.2549 30.8071 28.1564 30.5823Z" fill="white"/>
<path d="M36.0448 29.2611C36.0165 29.1445 35.9765 29.028 35.9124 28.9284C35.9289 28.9301 35.9453 28.932 35.9618 28.9335C36.0764 28.9443 36.1128 28.7742 36.0191 28.7221C35.5632 28.4689 34.9818 28.4321 34.4716 28.4735C33.9545 28.5154 33.4284 28.6482 32.9721 28.9006C32.5584 29.1295 32.188 29.4386 31.8877 29.8038C31.7401 29.9831 31.6184 30.1769 31.505 30.3792C31.3931 30.5785 31.2468 30.8281 31.2147 31.0563C31.1963 31.1868 31.3211 31.2814 31.423 31.2366C31.434 31.5463 31.5772 31.8356 31.9187 32.0649C32.1432 32.2158 32.4047 32.3022 32.6743 32.3448C32.7929 32.3655 32.9127 32.3759 33.0326 32.3805C33.87 32.4128 34.7316 32.1363 35.334 31.5534C35.9366 30.9717 36.2452 30.0744 36.0448 29.2611Z" fill="white"/>
<path d="M44.5693 51.0396C44.3825 49.9001 44.1006 48.7759 43.727 47.6839C43.3466 46.5699 42.8185 45.4236 41.83 44.7834C41.0098 44.2535 39.9942 44.1499 39.0229 44.0294C38.6187 43.9785 38.2112 43.9207 37.807 43.8477C37.8681 44.1992 37.9717 44.5949 37.7798 45.1299C37.5675 45.7191 36.7915 45.8499 36.35 46.2931C35.6537 46.9928 35.9491 48.2715 35.2987 49.0119C34.5532 49.8577 33.1266 49.4739 32.1366 50.0071C31.3029 50.4537 30.8222 51.527 29.8882 51.6628C28.6672 51.8412 27.8334 50.3009 26.6106 50.126C26.186 50.0648 25.7564 50.1803 25.3285 50.2092C24.8988 50.2364 24.4149 50.1481 24.1669 49.7966C23.8001 49.282 24.1398 48.5195 23.8578 47.954C23.6049 47.4479 22.9205 47.2373 22.7421 46.7007C22.5519 46.125 23.0477 45.5459 23.0732 44.9413C23.0869 44.6017 22.9527 44.2909 22.7388 44.0277C22.54 44.0209 22.3413 44.0107 22.146 43.9989C20.582 43.9173 18.8447 44.0141 17.7103 45.0959C16.7338 46.0231 16.4469 47.4479 16.2736 48.781C16.0682 50.3774 15.956 51.9856 15.9424 53.5938C15.956 53.6022 15.9697 53.6108 15.9832 53.6193C16.0188 53.6413 16.0545 53.6634 16.0902 53.6838C16.1394 53.7143 16.1887 53.7432 16.2397 53.7721C17.2738 54.3902 18.3522 54.9388 19.4696 55.4143C19.6158 55.4754 19.76 55.5365 19.9078 55.596C20.1303 55.686 20.3544 55.7743 20.5803 55.8558H20.582C20.6821 55.8932 20.7824 55.9305 20.8826 55.9662C21.0371 56.0222 21.1934 56.0766 21.3496 56.1293V56.1309C21.443 56.1632 21.5347 56.1938 21.6281 56.2227H21.6298C21.7232 56.2532 21.8166 56.2838 21.91 56.3126C22.0034 56.3432 22.0968 56.3721 22.1902 56.3993C22.2852 56.4298 22.3804 56.4587 22.4771 56.4859C22.6623 56.5402 22.8491 56.5912 23.0375 56.6404C25.2555 57.2331 27.5854 57.5489 29.9901 57.5489C32.6003 57.5489 35.1221 57.1771 37.5081 56.4841C37.5947 56.4587 37.6796 56.4332 37.7662 56.4077C37.8749 56.3754 37.9818 56.3432 38.0889 56.3092C38.1704 56.2838 38.2518 56.2566 38.3334 56.2294C38.3725 56.2176 38.4115 56.204 38.4506 56.1904C38.4931 56.1785 38.5355 56.1632 38.5762 56.1496C38.6068 56.1395 38.6391 56.1293 38.6697 56.1173C38.8038 56.0715 38.938 56.0257 39.072 55.9764C39.1842 55.9374 39.2963 55.8966 39.4083 55.8542C39.4611 55.8338 39.5154 55.8134 39.568 55.793C40.0656 55.6045 40.5546 55.4007 41.0369 55.1834C41.6925 54.8879 42.3344 54.5669 42.961 54.2221V54.2205L42.9881 54.2052C43.2702 54.049 43.5503 53.8876 43.8254 53.7195C44.1073 53.5514 44.3858 53.3782 44.661 53.1981C44.7629 52.4865 44.6848 51.7529 44.5693 51.0396Z" fill="#F6A45D"/>
<path d="M25.4544 42.9584C27.6406 43.1023 29.8558 42.5344 31.7322 41.4113C32.1608 41.1556 32.618 40.8584 33.05 40.5266C33.0473 40.5153 33.046 40.5036 33.0433 40.4923C33.0229 40.405 33.0056 40.3169 32.9916 40.228C32.9783 40.1435 32.9694 40.0577 32.9614 39.9716C32.9586 39.9419 32.9539 39.9128 32.9518 39.8829C32.9494 39.8505 32.9489 39.8174 32.9472 39.7848C32.9431 39.7073 32.9394 39.6298 32.9388 39.5511C32.9384 39.5108 32.9398 39.4698 32.9403 39.4292C32.9412 39.3558 32.9422 39.2824 32.9456 39.208C32.9463 39.1919 32.9468 39.1759 32.9477 39.1597C32.95 39.1152 32.9542 39.0698 32.9573 39.0249C31.86 39.6122 30.6536 39.9369 29.3873 39.9369C28.2367 39.9369 27.1366 39.6664 26.1218 39.1769C26.1137 39.2848 26.1071 39.3931 26.1013 39.5016C26.1009 39.5091 26.1005 39.5167 26.1001 39.5242C26.0959 39.6034 26.092 39.6825 26.0885 39.7616C26.0785 39.9876 26.0698 40.2131 26.0582 40.4361C26.0566 40.4674 26.0552 40.499 26.0534 40.5302C26.0221 41.0834 25.9352 41.6672 25.7517 42.1963C25.6578 42.4669 25.5403 42.7242 25.3887 42.9538C25.4106 42.9549 25.4325 42.9572 25.4544 42.9584Z" fill="#873736"/>
<path d="M30.8391 33.3985C31.0232 32.9045 30.946 32.377 30.7657 31.8945C30.6475 31.5781 30.4841 31.2804 30.3526 30.9698C30.1685 30.5349 30.1428 30.1482 30.122 29.6843C30.1119 29.4602 29.8088 29.3611 29.6897 29.5672C29.36 30.1376 29.5772 30.801 29.8312 31.3687C30.0374 31.8298 30.3121 32.2604 30.3037 32.7809C30.2903 33.6148 29.7512 33.7091 29.0284 33.7531C28.858 33.7634 28.7966 33.9441 28.8973 34.0698C29.4949 34.8162 30.5752 34.1067 30.8391 33.3985Z" fill="#873736"/>
<path d="M19.3077 29.3827C18.8422 28.8129 17.9629 28.2218 17.1946 28.4132C17.0749 28.4429 16.9663 28.574 16.9751 28.7012C16.9861 28.8587 17.0458 28.9318 17.1946 28.9894C17.3527 29.0505 17.5763 28.9922 17.7508 29.0311C17.9398 29.0733 18.1202 29.1521 18.2893 29.2471C17.6736 29.5176 17.4042 30.473 17.7945 31.0633C17.8653 31.1704 18.0109 31.2237 18.1276 31.1507C18.1451 31.1397 18.1614 31.1264 18.1768 31.1126C18.2591 31.039 18.2639 30.9095 18.2148 30.8177C18.0689 30.5443 18.0234 30.2482 18.1881 29.9696C18.3171 29.7514 18.5214 29.6533 18.7422 29.5742C18.9803 29.7937 19.1698 30.0596 19.2998 30.3639C19.4503 30.7161 19.4271 31.1597 19.6459 31.4645C19.6732 31.5025 19.7345 31.5227 19.7703 31.4805C20.2395 30.9293 19.6891 29.8497 19.3077 29.3827Z" fill="#873736"/>
<path d="M32.4495 28.2299C32.8691 28.0761 33.2718 27.9118 33.6906 27.8094C33.9711 27.7407 34.2589 27.6999 34.5639 27.7084C34.8701 27.717 35.3604 27.8355 35.6368 27.6642C35.9021 27.4997 35.785 27.263 35.5743 27.1074C34.3798 26.2245 32.5333 26.3112 31.5853 27.5368C31.5058 27.6396 31.4322 27.7554 31.4238 27.885C31.3816 28.5408 32.0414 28.3797 32.4495 28.2299Z" fill="black"/>
<path d="M23.5562 27.9182C23.8543 28.0479 24.3224 27.8603 24.6244 27.8078C24.9248 27.7554 25.2155 27.7545 25.503 27.7821C25.9322 27.8233 26.3544 27.9279 26.7916 28.0198C27.2172 28.1093 27.8931 28.174 27.757 27.531C27.7302 27.4038 27.6408 27.2998 27.5473 27.2096C26.4329 26.1331 24.5931 26.3127 23.5379 27.3582C23.3519 27.5425 23.2699 27.7936 23.5562 27.9182Z" fill="black"/>
<path d="M31.9834 8.22835C32.4339 8.46453 32.8819 8.85965 32.8761 9.36877C32.8715 9.65902 32.7172 9.92511 32.5491 10.1624C32.192 10.6704 31.7507 11.1266 31.4904 11.691C31.2301 12.2543 31.1898 12.9823 31.6055 13.4442C32.2702 14.1849 33.459 13.7679 34.437 13.5812C35.901 13.3037 37.3997 13.6965 38.8385 14.087C39.4904 14.2643 40.1688 14.4555 40.6666 14.914C41.163 15.3713 41.4061 16.1811 41.019 16.7352C40.8658 16.954 40.6182 17.1441 40.6204 17.4114C40.6217 17.6095 40.7644 17.7765 40.9085 17.9112C41.6503 18.6082 42.6317 19.0091 43.3643 19.7152C44.1925 20.5134 44.6418 21.6895 44.5554 22.8368C44.5358 23.0995 44.4873 23.3656 44.3492 23.589C44.0613 24.0533 43.4507 24.233 43.1431 24.6845C42.8092 25.1752 42.9265 25.8503 43.1869 26.3847C43.4462 26.9192 43.832 27.3915 44.037 27.9502C44.3711 28.8648 44.1049 30.0133 43.2999 30.5627C42.816 30.8933 42.2124 30.982 41.6549 31.164C41.0984 31.3472 40.5225 31.6916 40.374 32.2594C40.2876 32.5889 40.3613 32.9368 40.3854 33.2777C40.4822 34.6312 39.6989 36.0066 38.4849 36.6137C37.9549 36.8775 37.3548 37.0088 36.8779 37.3601C36.5969 37.5686 36.3734 37.8992 36.3101 38.2356C36.3849 38.2079 36.4564 38.1768 36.5254 38.1446C37.6474 38.8426 39.2485 38.6365 40.1562 37.6757C41.0501 36.7324 41.2368 35.2797 42.1329 34.3386C42.7146 33.727 43.5291 33.4033 44.2248 32.9253C45.3572 32.1466 46.2049 30.7919 45.9734 29.4373C45.8593 28.7669 45.4953 28.1494 45.4528 27.471C45.4043 26.7142 45.7592 25.9989 46.0759 25.31C46.781 23.7768 47.3004 21.8566 46.2959 20.5019C45.8836 19.9468 45.2603 19.5701 44.8722 18.9965C44.1799 17.9701 44.3976 16.6108 44.2282 15.384C44.0151 13.8463 43.0776 12.3834 41.6757 11.7187C40.6413 11.2291 39.4467 11.1935 38.312 11.3374C38.1025 11.364 37.8801 11.3939 37.6877 11.304C37.4631 11.1992 37.3409 10.9573 37.2247 10.7373C36.4379 9.24555 35.15 7.98767 33.5662 7.4106C32.6147 7.06502 31.5585 6.9867 30.5713 7.1952C30.5909 7.28039 30.6416 7.3599 30.6991 7.42898C31.0227 7.82062 31.5331 7.99112 31.9834 8.22835Z" fill="#0F0F0F"/>
<path d="M34.8217 18.5278C35.2427 18.5149 35.6626 18.4187 36.0816 18.461C36.5007 18.5032 36.9433 18.7319 37.0615 19.1361C37.115 19.3187 37.0962 19.5151 37.137 19.7009C37.3131 20.5014 38.4104 20.6991 38.854 21.3883C39.6638 22.6461 38.1844 22.8977 37.5829 23.4669C36.9456 24.07 37.3051 24.9598 38.0698 25.1607C39.4701 25.5283 42.6875 23.2239 41.21 21.802C41.0441 21.6425 40.825 21.5537 40.6156 21.4587C39.9098 21.1386 39.2124 20.657 38.9514 19.9273C38.7988 19.5006 38.8121 19.0323 38.6982 18.5935C38.396 17.43 37.092 16.6283 35.9173 16.884C35.5475 16.9645 35.1971 17.1339 34.8203 17.1681C33.8381 17.2572 32.9337 16.206 33.1686 15.248C32.42 15.6425 32.2235 16.7293 32.6522 17.4587C33.0811 18.1881 33.976 18.5536 34.8217 18.5278Z" fill="#0F0F0F"/>
<path d="M16.7443 21.5691C17.1694 21.9435 17.8381 21.7828 18.3365 21.5135C18.9371 21.189 19.5185 20.6239 19.4645 19.9434C19.4018 19.152 18.4981 18.4739 18.7757 17.7301C19.0395 17.0231 20.1116 17.0267 20.5585 16.4187C20.9489 15.8877 20.7206 15.0906 21.07 14.5319C21.5075 13.8322 22.5158 13.9005 23.3314 13.7756C23.7871 13.7059 24.2255 13.551 24.6507 13.3731C24.9347 13.2544 25.2218 13.1197 25.4327 12.8955C25.8498 12.4521 25.7506 11.7731 25.106 11.6615C24.6551 11.5835 24.4752 11.8567 24.1491 12.0951C23.1599 12.8183 21.669 12.4094 20.5186 12.901C20.0631 13.0957 19.5958 13.4059 19.4836 13.8883C19.3964 14.2638 19.5454 14.6717 19.4216 15.0368C19.2631 15.505 18.7379 15.7157 18.2931 15.9313C17.8483 16.1469 17.373 16.5459 17.4684 17.0309C17.5057 17.2205 17.6273 17.3815 17.6961 17.562C17.8724 18.0248 17.6806 18.5488 17.4084 18.9626C17.1362 19.3763 16.7814 19.7398 16.5793 20.1919C16.3772 20.6442 16.3727 21.2417 16.7443 21.5691Z" fill="#0F0F0F"/>
<path d="M25.7153 30.191C25.7153 29.7568 25.6148 29.3576 25.4471 29.0331C25.262 29.0096 25.0741 29.0018 24.8843 29.01C24.6205 29.0213 24.3613 29.0677 24.1085 29.1439C23.8506 29.2216 23.6201 29.3423 23.3714 29.44C23.3371 29.4535 23.3036 29.4553 23.2721 29.4495C23.2646 29.4907 23.2589 29.5322 23.2547 29.5735C23.1741 30.4075 23.6095 31.2508 24.2891 31.7403C24.4516 31.8578 24.6267 31.9558 24.811 32.0341C25.3386 31.7599 25.7153 31.0377 25.7153 30.191Z" fill="#5C3629"/>
<path d="M33.9896 30.6252C33.9896 30.043 33.7298 29.5272 33.3312 29.2109C33.2772 29.2374 33.2237 29.265 33.1707 29.2938C32.7943 29.4982 32.4574 29.7695 32.174 30.0904C32.0312 30.2522 31.8948 30.4191 31.7828 30.6039C31.6722 30.7865 31.607 30.9963 31.4946 31.1746C31.4743 31.2068 31.4491 31.2253 31.4229 31.2369C31.4338 31.5466 31.577 31.8358 31.9185 32.0651C32.143 32.216 32.4045 32.3024 32.6741 32.345C33.4206 32.2068 33.9896 31.4892 33.9896 30.6252Z" fill="#5C3629"/>
<path d="M26.6958 35.4369C26.8687 36.8188 29.6182 37.6209 30.6618 36.8421C30.7695 36.7617 30.7892 36.5406 30.6188 36.5132C29.9113 36.3992 29.2758 36.5175 28.5835 36.2135C27.9928 35.9541 27.6229 35.3893 27.0512 35.1662C26.894 35.1048 26.6743 35.2654 26.6958 35.4369Z" fill="#873736"/>
<path d="M26.352 45.9476C27.5086 46.5187 28.8092 46.7819 30.0948 46.6258C32.2371 46.3655 34.2624 44.9633 35.2311 43.0198C35.3502 42.781 35.4543 42.5345 35.5396 42.2805C35.7381 41.6893 34.789 41.2737 34.5198 41.8506C34.4367 42.0285 34.3452 42.2011 34.2494 42.3707C33.33 43.9974 31.8325 45.2066 29.891 45.4028C28.864 45.5066 27.8031 45.2974 26.8804 44.8376C26.1409 44.469 25.6123 43.907 25.0175 43.3937C24.8433 43.2434 24.6638 43.0971 24.4713 42.9613C24.1517 42.7359 23.7562 43.1072 23.842 43.445C23.884 43.6104 23.9481 43.7697 24.0266 43.924C24.4853 44.8246 25.5028 45.5284 26.352 45.9476Z" fill="#DD813B"/>
<path d="M18.3105 33.3697C18.3105 33.7591 18.6263 34.0747 19.0157 34.0747C19.4052 34.0747 19.7208 33.7591 19.7208 33.3697C19.7208 33.2034 19.6609 33.0527 19.5647 32.9322C19.4356 32.7703 19.239 32.6646 19.0158 32.6646C18.8809 32.6646 18.7561 32.7044 18.6489 32.7701C18.4467 32.894 18.3105 33.1151 18.3105 33.3697Z" fill="#F6A45D"/>
<path d="M31.423 31.2366C31.4493 31.2251 31.4744 31.2066 31.4948 31.1744C31.6072 30.996 31.6723 30.7862 31.783 30.6037C31.895 30.4189 32.0314 30.252 32.1742 30.0902C32.4576 29.7693 32.7945 29.4979 33.1709 29.2935C33.2239 29.2648 33.2774 29.2371 33.3314 29.2107C33.709 29.0257 34.1107 28.8992 34.5318 28.8549C35.001 28.8055 35.4489 28.8823 35.9124 28.9284C35.9289 28.9301 35.9453 28.932 35.9618 28.9335C36.0764 28.9443 36.1128 28.7742 36.0191 28.7221C35.5632 28.4689 34.9818 28.4321 34.4716 28.4735C33.9545 28.5154 33.4284 28.6482 32.9721 28.9006C32.5584 29.1295 32.188 29.4386 31.8877 29.8038C31.7401 29.9831 31.6184 30.1769 31.505 30.3792C31.3931 30.5785 31.2468 30.8281 31.2147 31.0563C31.1963 31.1868 31.3211 31.2814 31.423 31.2366Z" fill="black"/>
<path d="M23.3717 29.4397C23.6203 29.3419 23.851 29.2213 24.1089 29.1436C24.3616 29.0673 24.6208 29.0209 24.8846 29.0096C25.0745 29.0015 25.2623 29.0093 25.4474 29.0328C25.7585 29.0722 26.0619 29.156 26.3548 29.2837C26.7894 29.4732 27.1692 29.7654 27.4762 30.1251C27.6365 30.3127 27.7731 30.5212 27.8854 30.7407C27.9606 30.8876 28.0157 31.0508 28.0932 31.1982C28.1224 31.2537 28.1543 31.3073 28.1923 31.3564C28.2263 31.4004 28.309 31.3754 28.3186 31.3231C28.3648 31.0753 28.2549 30.8071 28.1564 30.5823C28.051 30.3421 27.9186 30.115 27.7618 29.9048C27.4398 29.4733 27.0241 29.1037 26.5454 28.8541C26.0265 28.5837 25.4099 28.4684 24.8276 28.5031C24.2559 28.5371 23.6016 28.6877 23.1505 29.0598C23.0075 29.1777 23.1125 29.42 23.2724 29.4492C23.3039 29.4549 23.3373 29.4532 23.3717 29.4397Z" fill="black"/>
</svg>
