<svg width="140" height="140" viewBox="0 0 140 140" fill="none" xmlns="http://www.w3.org/2000/svg">
<g clip-path="url(#clip0_16654_211894)">
<path fill-rule="evenodd" clip-rule="evenodd" d="M0.705078 3C0.705078 1.34314 2.04822 0 3.70508 0H48.5531C50.2099 0 51.5531 1.34315 51.5531 3V47.6429C51.5531 49.2998 50.2099 50.6429 48.5531 50.6429H3.70508C2.04822 50.6429 0.705078 49.2998 0.705078 47.6429V3ZM127.535 130.035C127.535 128.378 128.878 127.035 130.535 127.035H137.5C139.157 127.035 140.5 128.378 140.5 130.035V136.795C140.5 138.452 139.157 139.795 137.5 139.795H130.535C128.878 139.795 127.535 138.452 127.535 136.795V130.035ZM102.618 124.012C102.618 125.669 103.961 127.012 105.618 127.012H112.583C114.24 127.012 115.583 128.355 115.583 130.012V136.168C115.583 137.825 114.24 139.168 112.583 139.168H102.618H102.606H92.652C90.9952 139.168 89.652 137.825 89.652 136.168V117.308C89.652 115.651 90.9952 114.308 92.652 114.308H99.2074C100.864 114.308 102.207 112.965 102.207 111.308V104.707C102.207 103.051 103.551 101.707 105.207 101.707H111.979C113.636 101.707 114.979 100.364 114.979 98.7074V79.5853C114.979 77.9284 116.322 76.5853 117.979 76.5853H124.945C126.602 76.5853 127.945 77.9284 127.945 79.5853V85.9355C127.945 87.5924 129.288 88.9355 130.945 88.9355H137.295C138.952 88.9355 140.295 90.2787 140.295 91.9355V98.696C140.295 100.353 138.952 101.696 137.295 101.696H130.945C129.288 101.696 127.945 103.039 127.945 104.696V111.456C127.945 113.113 126.602 114.456 124.945 114.456H115.173H114.979H105.618C103.961 114.456 102.618 115.8 102.618 117.456V124.012ZM64.1198 104.502C64.1198 102.845 65.4629 101.502 67.1198 101.502H73.6751C75.332 101.502 76.6751 100.159 76.6751 98.5023V91.7419C76.6751 90.085 75.332 88.7419 73.6751 88.7419H67.53C65.8731 88.7419 64.53 87.3987 64.53 85.7419V78.9815C64.53 77.3246 65.8731 75.9815 67.53 75.9815H73.6751C75.332 75.9815 76.6751 74.6383 76.6751 72.9815V66.221C76.6751 64.5642 75.332 63.221 73.6751 63.221H67.3249C65.668 63.221 64.3249 64.5642 64.3249 66.221V72.9815C64.3249 74.6383 62.9817 75.9815 61.3249 75.9815H54.348C52.6911 75.9815 51.348 74.6383 51.348 72.9815V66.221C51.348 64.5642 52.6911 63.221 54.348 63.221H61.1084C62.7653 63.221 64.1084 61.8779 64.1084 60.221V28.3271C64.1084 26.6703 65.4516 25.3272 67.1084 25.3272H74.0739C75.7308 25.3272 77.0739 26.6703 77.0739 28.3272V60.2096C77.0739 61.8665 78.417 63.2096 80.0739 63.2096H86.6292C88.2861 63.2096 89.6292 64.5528 89.6292 66.2096V72.9701C89.6292 74.6269 90.9724 75.9701 92.6292 75.9701H98.9795C100.636 75.9701 101.979 74.6269 101.979 72.9701V66.2096C101.979 64.5528 103.323 63.2096 104.979 63.2096H111.945C113.602 63.2096 114.945 64.5528 114.945 66.2096V72.9701C114.945 74.6269 113.602 75.9701 111.945 75.9701H105.618C103.961 75.9701 102.618 77.3132 102.618 78.9701V85.7305C102.618 87.3873 101.274 88.7305 99.6175 88.7305H92.652C90.9952 88.7305 89.652 90.0736 89.652 91.7305V110.853C89.652 112.509 88.3089 113.853 86.652 113.853H80.0853C78.4284 113.853 77.0853 115.196 77.0853 116.853V136.18C77.0853 137.837 75.7421 139.18 74.0853 139.18H67.1198C65.4629 139.18 64.1198 137.837 64.1198 136.18V104.502ZM127.318 66.2096C127.318 64.5528 128.661 63.2096 130.318 63.2096H137.284C138.94 63.2096 140.284 64.5528 140.284 66.2096V72.9701C140.284 74.6269 138.94 75.9701 137.284 75.9701H130.318C128.661 75.9701 127.318 74.6269 127.318 72.9701V66.2096ZM26.0322 66.2096C26.0322 64.5528 27.3754 63.2096 29.0322 63.2096H35.9977C37.6546 63.2096 38.9977 64.5528 38.9977 66.2096V72.9701C38.9977 74.6269 37.6546 75.9701 35.9977 75.9701H29.0322C27.3754 75.9701 26.0322 74.6269 26.0322 72.9701V66.2096ZM0.705078 66.2096C0.705078 64.5528 2.04822 63.2096 3.70508 63.2096H10.6706C12.3274 63.2096 13.6706 64.5528 13.6706 66.2096V72.9701C13.6706 74.6269 12.3274 75.9701 10.6706 75.9701H3.70508C2.04823 75.9701 0.705078 74.6269 0.705078 72.9701V66.2096ZM64.1198 3C64.1198 1.34315 65.4629 0 67.1198 0H74.0853C75.7422 0 77.0853 1.34315 77.0853 3V9.76041C77.0853 11.4173 75.7421 12.7604 74.0853 12.7604H67.1198C65.4629 12.7604 64.1198 11.4173 64.1198 9.76042V3ZM0.5 91.9355C0.5 90.2787 1.84315 88.9355 3.5 88.9355H48.348C50.0048 88.9355 51.348 90.2787 51.348 91.9355V136.578C51.348 138.235 50.0048 139.578 48.348 139.578H3.5C1.84314 139.578 0.5 138.235 0.5 136.578V91.9355ZM12.8503 104.24C12.8503 102.583 14.1934 101.24 15.8503 101.24H35.9977C37.6546 101.24 38.9977 102.583 38.9977 104.24V124.285C38.9977 125.942 37.6546 127.285 35.9977 127.285H15.8503C14.1934 127.285 12.8503 125.942 12.8503 124.285V104.24ZM89.4355 3C89.4355 1.34314 90.7787 0 92.4355 0H137.284C138.94 0 140.284 1.34315 140.284 3V47.6429C140.284 49.2998 138.94 50.6429 137.284 50.6429H92.4355C90.7787 50.6429 89.4355 49.2998 89.4355 47.6429V3ZM101.797 15.3047C101.797 13.6478 103.14 12.3047 104.797 12.3047H124.945C126.602 12.3047 127.945 13.6478 127.945 15.3047V35.3496C127.945 37.0065 126.602 38.3496 124.945 38.3496H104.797C103.14 38.3496 101.797 37.0065 101.797 35.3496V15.3047ZM13.0553 15.3047C13.0553 13.6478 14.3985 12.3047 16.0553 12.3047H36.2028C37.8597 12.3047 39.2028 13.6478 39.2028 15.3047V35.3496C39.2028 37.0065 37.8597 38.3496 36.2028 38.3496H16.0553C14.3985 38.3496 13.0553 37.0065 13.0553 35.3496V15.3047Z" fill="black"/>
</g>
<defs>
<clipPath id="clip0_16654_211894">
<rect width="140" height="140" fill="white"/>
</clipPath>
</defs>
</svg>
