<svg width="60" height="60" viewBox="0 0 60 60" fill="none" xmlns="http://www.w3.org/2000/svg">
<path d="M59.9532 42.5628L53.795 26.1572C55.5071 25.1193 56.2369 24.7752 56.6668 23.9612C57.2103 22.9318 55.3002 18.0375 54.1367 17.2211C53.1239 16.5103 52.5098 16.7658 50.3511 16.9825L44.1844 0.554046C44.0255 0.130764 43.5066 -0.0998132 43.0313 0.0416847L42.9115 0.0773366C42.4362 0.218834 42.1773 0.680933 42.3363 1.10421L42.5833 1.76248C41.5143 4.28268 35.3949 17.0108 19.0553 21.8751C8.86217 24.9095 5.34111 23.5411 2.81186 26.9546C2.1943 27.788 2.07212 29.3469 2.29955 31.1968C1.35775 31.3637 0.744382 31.6074 0.246698 32.3519C-0.780804 33.889 1.61772 40.6736 3.45811 40.9072C4.15986 40.9963 4.79292 40.8783 5.54116 40.6289C6.6913 42.5708 8.00002 43.9494 9.23465 44.0651C11.013 44.2318 12.6062 43.833 14.6447 43.0964C16.3832 48.1352 19.6486 58.9777 21.3486 59.8789C23.0746 60.794 31.0181 56.274 31.2804 54.635C31.4626 53.4965 27.8229 52.9039 24.4861 48.6572C24.5683 48.5025 24.5874 48.321 24.5217 48.1459L23.4234 45.2199C23.2883 44.86 22.8513 44.6659 22.4473 44.7861L22.1733 44.8677C21.6191 43.6899 21.1113 42.3461 20.6765 40.81C22.094 40.3002 23.7004 39.7587 25.5605 39.205L25.5606 39.2049C41.393 34.4918 55.2883 41.1282 57.8669 42.4783L58.1051 43.113C58.264 43.5362 58.7829 43.7668 59.2582 43.6253L59.378 43.5897C59.8532 43.4482 60.1121 42.9861 59.9532 42.5628Z" fill="#F6ECEC"/>
<path d="M23.4971 33.7128L23.497 33.7125L19.0535 21.875C18.1666 22.139 17.3333 22.3679 16.5437 22.5713C16.4404 22.5979 16.3368 22.6247 16.2351 22.6504C16.0695 22.6922 15.9071 22.7322 15.7456 22.7717C15.6532 22.7943 15.5593 22.8177 15.4684 22.8396C15.26 22.8896 15.0558 22.9374 14.8543 22.9837C14.727 23.013 14.6026 23.0409 14.4779 23.0688C7.71464 24.5837 4.91653 24.1117 2.81011 26.9545C2.19255 27.7879 2.07037 29.3468 2.2978 31.1968C2.52008 33.0039 3.07652 35.0885 3.83194 37.0475C3.8581 37.1152 3.88404 37.1831 3.91061 37.2505C3.91061 37.2505 3.91058 37.2505 3.9105 37.2505C3.91129 37.2525 3.91213 37.2544 3.91284 37.2564C3.93254 37.3064 3.95288 37.3559 3.97284 37.4057C3.9987 37.4701 4.02433 37.5345 4.05056 37.5985C4.07249 37.652 4.09491 37.705 4.1171 37.7582C4.14201 37.8179 4.16677 37.8778 4.19206 37.9371C4.21516 37.9914 4.23875 38.0453 4.26211 38.0993C4.28717 38.1571 4.31209 38.2149 4.33742 38.2722C4.36127 38.3262 4.3855 38.3797 4.40962 38.4333C4.43518 38.4902 4.46073 38.547 4.48659 38.6035C4.51086 38.6564 4.53536 38.7088 4.55989 38.7613C4.58613 38.8175 4.61244 38.8737 4.63894 38.9295C4.66385 38.9818 4.68895 39.0337 4.71409 39.0855C4.74089 39.1407 4.7677 39.1957 4.79473 39.2504C4.81994 39.3015 4.84535 39.3521 4.87079 39.4027C4.89831 39.4574 4.92594 39.5118 4.95377 39.5659C4.97932 39.6157 5.00503 39.6652 5.03081 39.7145C5.05886 39.7681 5.08702 39.8213 5.11538 39.8743C5.14146 39.9232 5.16766 39.9719 5.19393 40.0203C5.22232 40.0724 5.25094 40.1241 5.27959 40.1756C5.3061 40.2234 5.33267 40.2711 5.35944 40.3183C5.38854 40.3697 5.41788 40.4205 5.44725 40.4712C5.47379 40.517 5.50025 40.5629 5.52694 40.6081C5.53099 40.615 5.535 40.6221 5.53912 40.629C5.56524 40.6732 5.59174 40.7165 5.61813 40.7601C5.64436 40.8036 5.67052 40.8473 5.69695 40.8901C5.72863 40.9416 5.76057 40.992 5.79248 41.0425C5.81792 41.0829 5.84332 41.1237 5.86895 41.1634C5.90301 41.2163 5.93734 41.2679 5.97163 41.3198C5.99548 41.3558 6.01926 41.3925 6.04319 41.4281C6.08254 41.4864 6.1222 41.5432 6.16182 41.6C6.18098 41.6276 6.20004 41.6559 6.21928 41.6831C6.27784 41.7658 6.33666 41.8469 6.39571 41.9262C6.41245 41.9487 6.42932 41.97 6.4461 41.9922C6.48908 42.049 6.53203 42.1058 6.5752 42.1607C6.59841 42.1903 6.62174 42.2184 6.64498 42.2474C6.68181 42.2932 6.71859 42.3392 6.75552 42.3836C6.7813 42.4145 6.80716 42.4441 6.83306 42.4744C6.86776 42.5151 6.9025 42.5559 6.9374 42.5953C6.9642 42.6256 6.99111 42.6547 7.01803 42.6842C7.05202 42.7215 7.086 42.7588 7.12014 42.7949C7.14762 42.8239 7.17522 42.8519 7.20278 42.8802C7.23646 42.9146 7.2701 42.9489 7.30379 42.982C7.33169 43.0095 7.35958 43.0359 7.38756 43.0624C7.42117 43.0943 7.45474 43.1258 7.48842 43.1563C7.51639 43.1817 7.54444 43.2064 7.57249 43.2308C7.6061 43.2602 7.63979 43.289 7.67343 43.317C7.70159 43.3403 7.72968 43.3631 7.75788 43.3855C7.79157 43.4123 7.82521 43.4383 7.85893 43.4636C7.8871 43.4847 7.91522 43.5056 7.94339 43.5257C7.97718 43.5499 8.01094 43.573 8.0447 43.5957C8.07279 43.6146 8.10088 43.6333 8.12896 43.6511C8.16299 43.6727 8.19697 43.693 8.231 43.7131C8.25867 43.7294 8.28634 43.7458 8.31401 43.761C8.34864 43.7802 8.38327 43.7976 8.4179 43.8151C8.44493 43.8287 8.47196 43.8427 8.49899 43.8553C8.53433 43.8718 8.56968 43.8863 8.60499 43.901C8.63126 43.9118 8.65746 43.9234 8.68369 43.9333C8.72048 43.9472 8.75718 43.9588 8.79389 43.9707C8.8185 43.9786 8.84307 43.9876 8.86757 43.9946C8.90829 44.0062 8.94888 44.0152 8.98949 44.0243C9.0099 44.0289 9.03039 44.0347 9.05073 44.0386C9.11159 44.0503 9.17238 44.0593 9.23294 44.0649C9.35773 44.0767 9.48158 44.0856 9.60474 44.0918C9.85111 44.1042 10.0946 44.1058 10.3371 44.0973C10.4583 44.093 10.5794 44.0862 10.7003 44.0769C10.9421 44.0583 11.1838 44.0298 11.4271 43.9921C11.5488 43.9733 11.6708 43.9521 11.7935 43.9287C12.5294 43.7884 13.2873 43.5676 14.1146 43.2833C14.2869 43.224 14.4635 43.1611 14.6423 43.0965C14.6431 43.0962 14.6439 43.0959 14.6448 43.0956C14.8279 43.0294 15.0152 42.9603 15.2059 42.8888C15.2321 42.879 15.2581 42.8694 15.2845 42.8594C15.4777 42.7868 15.6735 42.7125 15.8755 42.6348C16.0323 42.5746 16.1919 42.5128 16.3545 42.4498C16.6796 42.3236 17.0169 42.1919 17.368 42.0553C17.8946 41.8504 18.4524 41.6346 19.0472 41.4099C19.2454 41.335 19.4478 41.2591 19.6545 41.1823C19.9494 41.0727 20.2571 40.9606 20.5709 40.8475C20.6056 40.8349 20.6398 40.8225 20.6748 40.81C20.7193 40.7939 20.7624 40.7781 20.8074 40.762C20.8131 40.76 20.8186 40.758 20.8243 40.756C20.8249 40.7558 20.8255 40.7555 20.8262 40.7553C20.9415 40.714 21.0595 40.6723 21.1774 40.6307C21.1786 40.6302 21.1798 40.6298 21.181 40.6294C21.2775 40.5953 21.3744 40.5611 21.4727 40.5268C21.4734 40.5265 21.4741 40.5263 21.4747 40.5261C21.5949 40.484 21.717 40.4418 21.8398 40.3994C21.8404 40.3992 21.841 40.399 21.8416 40.3988C21.9413 40.3644 22.042 40.3299 22.1434 40.2953C22.1437 40.2952 22.1439 40.2951 22.1441 40.2951C22.2718 40.2515 22.4007 40.2078 22.5313 40.164C22.6335 40.1296 22.7374 40.0951 22.8414 40.0606C22.9753 40.0161 23.1097 39.9716 23.2467 39.9268C23.4582 39.8577 23.6709 39.7885 23.8899 39.7188C24.423 39.549 24.9786 39.3775 25.5586 39.2049L23.4971 33.7128Z" fill="#E73A3A"/>
<path d="M21.3557 34.619C21.3481 34.6221 21.3404 34.6251 21.3328 34.6283C21.3404 34.6251 21.348 34.6219 21.3556 34.6188L16.8079 22.5034C16.7186 22.5268 16.6329 22.5481 16.5448 22.5708C16.4414 22.5974 16.3379 22.6242 16.2362 22.6499C16.0705 22.6917 15.9081 22.7317 15.7466 22.7712C15.6543 22.7938 15.5604 22.8173 15.4694 22.8391C15.2611 22.8891 15.0569 22.9369 14.8554 22.9832C14.7281 23.0125 14.6036 23.0404 14.479 23.0683C14.3651 23.0938 14.2494 23.1201 14.1377 23.1446L18.803 35.5731C18.8114 35.5704 18.82 35.5678 18.8285 35.5651C18.82 35.5678 18.8117 35.5709 18.8032 35.5737L20.7574 40.7797C20.7796 40.7717 20.803 40.7635 20.8253 40.7556C20.8259 40.7554 20.8265 40.7551 20.8272 40.7549C20.9426 40.7136 21.0606 40.6719 21.1785 40.6303C21.1797 40.6299 21.1808 40.6294 21.182 40.629C21.2786 40.5949 21.3755 40.5607 21.4737 40.5264C21.4744 40.5261 21.4751 40.5259 21.4758 40.5257C21.596 40.4836 21.718 40.4414 21.8409 40.399C21.8415 40.3988 21.8421 40.3986 21.8427 40.3984C21.9424 40.364 22.043 40.3295 22.1445 40.2949C22.1448 40.2948 22.145 40.2947 22.1452 40.2947C22.2729 40.2511 22.4017 40.2074 22.5324 40.1636C22.6346 40.1292 22.7384 40.0947 22.8425 40.0602C22.9764 40.0157 23.1108 39.9712 23.2478 39.9264C23.2779 39.9166 23.3066 39.9069 23.3369 39.897L21.3557 34.619Z" fill="#EF7C54"/>
<path d="M5.52866 40.6076C5.50197 40.5624 5.47547 40.5165 5.44897 40.4707C5.4196 40.42 5.39026 40.3693 5.36115 40.3178C5.33439 40.2707 5.30785 40.2229 5.28131 40.1752C5.25266 40.1236 5.22408 40.072 5.19565 40.0198C5.16938 39.9714 5.14318 39.9227 5.11709 39.8738C5.08878 39.8208 5.06058 39.7676 5.03253 39.714C5.00675 39.6647 4.98108 39.6152 4.95548 39.5654C4.92766 39.5113 4.90003 39.4569 4.87251 39.4022C4.84706 39.3517 4.82166 39.301 4.79644 39.25C4.76941 39.1953 4.74261 39.1402 4.71581 39.0851C4.69067 39.0332 4.66557 38.9813 4.64066 38.929C4.61415 38.8733 4.58784 38.8171 4.56161 38.7609C4.53707 38.7083 4.51258 38.6559 4.48831 38.603C4.46245 38.5466 4.43689 38.4897 4.41134 38.4329C4.38722 38.3792 4.36299 38.3257 4.33913 38.2717C4.31381 38.2144 4.28889 38.1566 4.26383 38.0989C4.24043 38.0448 4.21688 37.991 4.19378 37.9366C4.16849 37.8773 4.14373 37.8175 4.11881 37.7578C4.09662 37.7046 4.07421 37.6516 4.05228 37.5981C4.02604 37.5341 4.00041 37.4696 3.97456 37.4053C3.9546 37.3555 3.93426 37.3059 3.91456 37.2559C3.91381 37.254 3.91301 37.252 3.91222 37.25C3.91222 37.25 3.91226 37.25 3.91233 37.25C3.88572 37.1826 3.85982 37.1147 3.83366 37.047C3.07823 35.088 2.52177 33.0034 2.29952 31.1963C1.35772 31.3632 0.744354 31.6068 0.24667 32.3514C-0.286398 33.1488 0.10279 35.3583 0.857538 37.333C0.857651 37.3332 0.857765 37.3335 0.857878 37.3338C1.07604 37.9044 1.32475 38.4552 1.59051 38.9468C1.59153 38.9488 1.59259 38.9508 1.59365 38.9527C1.64476 39.0471 1.69651 39.1391 1.7488 39.2287C1.75186 39.234 1.75492 39.2393 1.75794 39.2446C1.80875 39.3313 1.86009 39.4155 1.91177 39.4973C1.91645 39.5047 1.92107 39.5121 1.92575 39.5195C1.97645 39.5992 2.0276 39.6761 2.07901 39.7505C2.08464 39.7586 2.0902 39.7667 2.09579 39.7747C2.14653 39.8475 2.1976 39.9173 2.24886 39.9844C2.25525 39.9928 2.26164 40.0011 2.26807 40.0095C2.31887 40.0751 2.36987 40.1378 2.42098 40.1974C2.42775 40.2053 2.43451 40.2131 2.44132 40.2209C2.49235 40.2796 2.54354 40.3352 2.59469 40.3873C2.60142 40.3941 2.60811 40.4007 2.6148 40.4074C2.6661 40.4587 2.71747 40.5068 2.76877 40.5511C2.77528 40.5567 2.7817 40.5619 2.7882 40.5674C2.83992 40.611 2.89156 40.6513 2.94305 40.6873C2.94872 40.6912 2.95431 40.6947 2.95998 40.6985C3.01234 40.7342 3.06455 40.7662 3.11649 40.7933C3.12091 40.7956 3.12522 40.7975 3.12965 40.7997C3.18284 40.8267 3.23584 40.8497 3.28842 40.8672C3.29099 40.868 3.29352 40.8685 3.29606 40.8694C3.35049 40.887 3.40455 40.8999 3.45808 40.9067C4.15976 40.9958 4.79274 40.8778 5.54087 40.6285C5.53671 40.6216 5.53271 40.6145 5.52866 40.6076Z" fill="#CC1A25"/>
<path d="M56.116 20.6756C56.1126 20.6784 56.1091 20.6812 56.1056 20.684C55.5469 19.1716 54.741 17.6454 54.1362 17.221C53.1234 16.5103 52.5092 16.7657 50.3506 16.9824L52.5288 22.7852L53.7945 26.1571C55.5065 25.1193 56.2364 24.7751 56.6662 23.9611C56.9389 23.4448 56.6222 22.0412 56.116 20.6756Z" fill="#FF9090"/>
<path d="M16.548 22.9537L15.3672 23.3052L18.4548 31.5316L19.6356 31.1801L16.548 22.9537Z" fill="#F4A081"/>
<path d="M13.7264 23.645C13.7264 23.645 9.78422 24.6988 8.31106 24.8796C6.83781 25.0604 4.95512 25.2904 3.68836 26.7816C2.52072 28.1561 2.97448 30.5817 2.97448 30.5817L14.8594 27.0436L13.7264 23.645Z" fill="#EB5E53"/>
<path d="M18.8319 22.2728L17.3174 22.7236L18.5286 25.9506L20.0431 25.4998L18.8319 22.2728Z" fill="#EB5E53"/>
<path d="M59.9518 42.5628L53.7937 26.1572L52.528 22.7853L50.3498 16.9825L44.1831 0.554046C44.0241 0.130764 43.5053 -0.0998132 43.03 0.0416847L42.9701 0.0594937L42.9102 0.0773366C42.4349 0.218834 42.176 0.680933 42.3349 1.10421L42.582 1.76248L52.182 27.3372L57.8654 42.4783L58.1037 43.113C58.2625 43.5363 58.7814 43.7668 59.2568 43.6253L59.3166 43.6075L59.3765 43.5897C59.8518 43.4482 60.1107 42.9861 59.9518 42.5628Z" fill="#BDBDBD"/>
<path d="M38.7398 17.751C43.8895 14.2884 45.3572 10.8997 45.3572 10.8997L42.5255 3.35596C42.5255 3.35596 39.1306 10.3478 33.3616 15.1315C27.0502 20.3651 19.7598 22.2304 19.7598 22.2304L20.8924 25.2479C20.8924 25.2479 32.372 22.0327 38.7398 17.751Z" fill="white"/>
<path d="M24.9052 49.1717C24.9053 49.1716 24.9053 49.1715 24.9054 49.1714C24.9019 49.1676 24.8987 49.1639 24.8953 49.16C24.7581 48.9984 24.6212 48.8307 24.4849 48.6571C24.5671 48.5025 24.5862 48.321 24.5205 48.1459L23.4221 45.2198C23.2871 44.86 22.85 44.6658 22.446 44.7861L22.1762 44.8664C22.0893 44.6805 22.0006 44.4883 21.9086 44.286C21.4564 43.2524 21.0401 42.0991 20.6753 40.8101C20.6403 40.8226 20.6061 40.835 20.5714 40.8476C20.2767 40.9538 19.9879 41.0591 19.7098 41.1622C19.6919 41.1689 19.6729 41.1757 19.655 41.1824C19.4483 41.2592 19.246 41.3351 19.0477 41.41C18.4529 41.6347 17.8952 41.8505 17.3686 42.0554C17.0175 42.192 16.6802 42.3237 16.355 42.4499C16.1924 42.5129 16.0328 42.5747 15.876 42.635C15.674 42.7126 15.4782 42.7869 15.285 42.8595C15.2587 42.8694 15.2325 42.8792 15.2065 42.8889C15.0157 42.9604 14.8285 43.0296 14.6453 43.0957C14.6447 43.0959 14.6442 43.0961 14.6436 43.0963C14.9517 43.9895 15.3075 45.0639 15.6945 46.2341C15.7692 46.4604 15.8452 46.6903 15.9222 46.9231C15.9992 47.1558 16.0773 47.3915 16.1562 47.6295C16.2351 47.8674 16.315 48.1076 16.3955 48.3495C16.4359 48.4705 16.4763 48.5918 16.517 48.7134C16.5984 48.9568 16.6805 49.2015 16.7631 49.4468C16.8458 49.6921 16.929 49.9382 17.0127 50.1843C17.0546 50.3073 17.0966 50.4304 17.1386 50.5534C17.2227 50.7993 17.3073 51.0451 17.3921 51.2899C17.4769 51.5347 17.5621 51.7786 17.6473 52.021C17.7326 52.2634 17.818 52.5042 17.9034 52.7429C18.0316 53.1009 18.1598 53.4541 18.2877 53.8002C18.3729 54.0309 18.458 54.2586 18.5428 54.4825C18.5853 54.5944 18.6276 54.7054 18.6698 54.8154C18.8388 55.2553 19.0064 55.6789 19.1716 56.0812C19.2542 56.2823 19.3362 56.4782 19.4176 56.668C19.4989 56.8578 19.5795 57.0417 19.6592 57.2189C19.739 57.3961 19.8178 57.5668 19.8958 57.7302C19.9737 57.8936 20.0507 58.0497 20.1266 58.198C20.2024 58.3463 20.2772 58.4866 20.3508 58.6185C20.7186 59.2779 21.056 59.7245 21.3473 59.879C21.3815 59.8971 21.419 59.9123 21.458 59.9263C21.4687 59.9301 21.4797 59.9336 21.4907 59.9371C21.5239 59.9476 21.5585 59.9569 21.5947 59.9647C21.6032 59.9665 21.6112 59.9688 21.6199 59.9705C21.6642 59.9791 21.7109 59.9856 21.7594 59.9903C21.7713 59.9915 21.7839 59.9922 21.796 59.9931C21.8358 59.9962 21.8769 59.9981 21.9193 59.9989C21.933 59.9991 21.9465 59.9995 21.9605 59.9995C22.0143 59.9995 22.0697 59.998 22.1272 59.9944C22.1357 59.9938 22.1447 59.9929 22.1533 59.9923C22.2038 59.9887 22.2558 59.9837 22.3089 59.9775C22.3261 59.9755 22.3434 59.9734 22.3608 59.9712C22.4174 59.9639 22.4751 59.9554 22.5344 59.9454C22.5408 59.9444 22.5469 59.9436 22.5533 59.9424C22.619 59.9311 22.6867 59.9177 22.7554 59.9031C22.7735 59.8993 22.7918 59.8952 22.8101 59.8912C22.8668 59.8786 22.9244 59.8651 22.983 59.8506C22.9984 59.8467 23.0135 59.8432 23.0291 59.8392C23.1014 59.8208 23.1749 59.801 23.2498 59.7797C23.2652 59.7752 23.2809 59.7705 23.2965 59.766C23.359 59.7478 23.4224 59.7287 23.4865 59.7087C23.5062 59.7026 23.5257 59.6965 23.5454 59.6902C23.6242 59.6651 23.7038 59.639 23.7847 59.6113C23.7874 59.6104 23.7902 59.6094 23.7929 59.6084C23.8716 59.5814 23.9514 59.5528 24.0318 59.5235C24.0515 59.5163 24.0713 59.5089 24.0911 59.5016C24.1673 59.4734 24.2442 59.4443 24.3217 59.4141C24.3294 59.4111 24.3369 59.4083 24.3445 59.4053C24.4313 59.3714 24.5189 59.3361 24.6071 59.2999C24.6234 59.2932 24.6398 59.2863 24.6561 59.2796C24.7328 59.2478 24.8098 59.2153 24.8874 59.1819C24.9013 59.176 24.9152 59.1701 24.9292 59.164C25.0205 59.1245 25.1123 59.084 25.2046 59.0424C25.21 59.0399 25.2153 59.0375 25.2207 59.0351C25.3071 58.996 25.394 58.9559 25.481 58.9152C25.4961 58.9082 25.511 58.9012 25.5261 58.8941C25.713 58.8061 25.9011 58.7145 26.0893 58.6198C26.1005 58.6142 26.1117 58.6086 26.1229 58.6029C26.316 58.5054 26.5092 58.4048 26.7013 58.3016C26.7032 58.3006 26.7049 58.2996 26.7068 58.2986C26.8026 58.2471 26.8981 58.195 26.9932 58.1423C26.9972 58.1401 27.0011 58.1379 27.0051 58.1357C27.1989 58.0283 27.391 57.9186 27.5804 57.8073C27.5846 57.8048 27.5889 57.8024 27.5931 57.7999C27.7838 57.6877 27.9717 57.5739 28.1555 57.4592C28.1556 57.4591 28.1557 57.4591 28.1558 57.459C28.6199 57.1694 29.0582 56.8742 29.4515 56.5848C29.4518 56.5846 29.4521 56.5844 29.4524 56.5842C30.4808 55.8274 31.203 55.1101 31.279 54.635C31.4537 53.5442 28.1197 52.9545 24.9052 49.1717Z" fill="#CC1A25"/>
<path d="M53.7941 26.1568C55.5061 25.1189 56.2359 24.7748 56.6658 23.9608C56.9384 23.4445 56.6217 22.0408 56.1156 20.6753C56.1122 20.6781 56.1086 20.6809 56.1052 20.6837C55.2667 21.3769 54.1129 22.0716 52.5283 22.7849L53.7941 26.1568Z" fill="#FF9090"/>
<path d="M42.9102 0.0774137C42.4349 0.218912 42.176 0.68101 42.3349 1.10429L42.582 1.76256L52.182 27.3373L57.8654 42.4784L58.1037 43.1131C58.2625 43.5363 58.7814 43.7669 59.2568 43.6254L59.3166 43.6076L42.9701 0.0595703L42.9102 0.0774137Z" fill="#9AA5AB"/>
<path d="M48.967 27.3776C41.0914 27.9396 34.0097 29.9766 26.9043 32.377C25.7367 32.7715 24.6133 33.2376 23.499 33.7122L23.4991 33.7125L25.5607 39.2047L25.5608 39.2046C41.3932 34.4915 55.2885 41.1279 57.8671 42.478L52.1836 27.3369C51.1298 27.2751 50.0646 27.2804 48.967 27.3776Z" fill="#FF9090"/>
<path d="M5.44886 40.4711C5.41948 40.4204 5.39015 40.3697 5.36104 40.3182C5.33427 40.271 5.30773 40.2233 5.2812 40.1755C5.25254 40.124 5.22396 40.0724 5.19553 40.0202C5.16926 39.9718 5.14306 39.9231 5.11698 39.8742C5.08866 39.8212 5.06046 39.768 5.03241 39.7144C5.00663 39.6651 4.98096 39.6156 4.95537 39.5658C4.92754 39.5117 4.89991 39.4573 4.87239 39.4026C4.84695 39.352 4.82154 39.3014 4.79633 39.2503C4.7693 39.1957 4.7425 39.1406 4.71569 39.0854C4.69055 39.0336 4.66545 38.9817 4.64054 38.9294C4.61404 38.8736 4.58773 38.8175 4.56149 38.7612C4.53696 38.7087 4.51246 38.6563 4.48819 38.6034C4.46233 38.5469 4.43678 38.4901 4.41122 38.4333C4.3871 38.3796 4.36287 38.3261 4.33902 38.2721C4.31369 38.2148 4.28878 38.157 4.26371 38.0993C4.24031 38.0452 4.21676 37.9914 4.19366 37.937C4.16837 37.8777 4.14361 37.8178 4.1187 37.7582C4.09651 37.7049 4.07409 37.6519 4.05216 37.5984C4.02593 37.5344 4.0003 37.47 3.97444 37.4056C3.95448 37.3558 3.93414 37.3063 3.91445 37.2563C3.91369 37.2543 3.9129 37.2524 3.9121 37.2504C3.9121 37.2504 3.91214 37.2504 3.91222 37.2504C3.8856 37.183 3.85971 37.1151 3.83355 37.0474C2.85069 37.1964 1.85767 37.2944 0.857422 37.3333C0.857535 37.3336 0.857649 37.3339 0.857762 37.3341C1.07593 37.9047 1.32464 38.4556 1.5904 38.9472C1.59142 38.9491 1.59248 38.9511 1.59353 38.9531C1.64464 39.0474 1.6964 39.1394 1.74868 39.2291C1.75174 39.2343 1.7548 39.2397 1.75783 39.2449C1.80864 39.3317 1.85997 39.4159 1.91165 39.4977C1.91634 39.505 1.92095 39.5125 1.92564 39.5198C1.97633 39.5995 2.02748 39.6765 2.07889 39.7508C2.08453 39.7589 2.09008 39.7671 2.09568 39.7751C2.14641 39.8478 2.19748 39.9177 2.24875 39.9848C2.25513 39.9931 2.26152 40.0015 2.26795 40.0098C2.31876 40.0755 2.36975 40.1382 2.42087 40.1978C2.42763 40.2057 2.4344 40.2135 2.4412 40.2213C2.49224 40.2799 2.54342 40.3355 2.59457 40.3876C2.6013 40.3944 2.60799 40.401 2.61468 40.4077C2.66598 40.459 2.71736 40.5072 2.76866 40.5514C2.77516 40.557 2.78159 40.5623 2.78809 40.5677C2.8398 40.6114 2.89144 40.6517 2.94293 40.6876C2.9486 40.6915 2.9542 40.695 2.95987 40.6989C3.01223 40.7345 3.06443 40.7665 3.11637 40.7937C3.1208 40.796 3.12511 40.7978 3.12953 40.8C3.18272 40.8271 3.23572 40.85 3.28831 40.8675C3.29088 40.8684 3.29341 40.8689 3.29594 40.8697C3.35038 40.8873 3.40444 40.9002 3.45797 40.907C4.15964 40.9961 4.79262 40.8781 5.54076 40.6289C5.53664 40.622 5.53263 40.6149 5.52858 40.608C5.50186 40.5628 5.47536 40.5169 5.44886 40.4711Z" fill="#B20E12"/>
<path d="M21.3563 34.6191C21.3487 34.6223 21.341 34.6253 21.3334 34.6284C21.1532 34.7025 20.9727 34.7754 20.7917 34.8475C20.7644 34.8583 20.7372 34.8695 20.7098 34.8803C20.091 35.1255 19.4658 35.3572 18.829 35.5652C18.8205 35.568 18.8122 35.571 18.8037 35.5738L20.7579 40.7798C20.7801 40.7718 20.8035 40.7637 20.8259 40.7557C20.8265 40.7555 20.8271 40.7552 20.8278 40.755C20.9431 40.7137 21.0611 40.6721 21.179 40.6304C21.1802 40.63 21.1814 40.6295 21.1825 40.6291C21.2791 40.595 21.376 40.5609 21.4743 40.5265C21.4749 40.5263 21.4757 40.526 21.4763 40.5258C21.5965 40.4838 21.7186 40.4415 21.8414 40.3991C21.842 40.3989 21.8426 40.3987 21.8432 40.3985C21.9429 40.3641 22.0436 40.3297 22.145 40.295C22.1453 40.2949 22.1455 40.2949 22.1457 40.2948C22.2734 40.2512 22.4023 40.2076 22.5329 40.1637C22.6351 40.1294 22.7389 40.0949 22.843 40.0603C22.9769 40.0159 23.1113 39.9713 23.2483 39.9266C23.2784 39.9167 23.3071 39.907 23.3374 39.8972L21.3563 34.6191Z" fill="#EA5242"/>
<path d="M23.4993 33.7129C22.7846 34.0173 22.0733 34.3246 21.3568 34.6194C21.3492 34.6225 21.3416 34.6257 21.334 34.6289C21.3416 34.6257 21.3493 34.6227 21.3569 34.6196L23.3381 39.8977C23.3079 39.9075 23.2792 39.9172 23.249 39.927C23.4605 39.858 23.6732 39.7887 23.8922 39.719C24.4253 39.5492 24.9809 39.3778 25.561 39.2051L23.4993 33.7129Z" fill="#D11625"/>
<path d="M20.7569 40.78L18.8027 35.574C18.8112 35.5713 18.8195 35.5682 18.828 35.5654C18.8195 35.5682 18.811 35.5707 18.8025 35.5735C18.0499 35.8184 17.2809 36.0308 16.4851 36.1915C12.326 37.0715 8.11621 37.6664 3.91125 37.2503C3.91125 37.2503 3.91121 37.2503 3.91113 37.2503C3.91193 37.2523 3.91276 37.2542 3.91348 37.2562C3.93317 37.3062 3.95351 37.3558 3.97347 37.4056C3.99933 37.4699 4.02496 37.5344 4.0512 37.5984C4.07312 37.6519 4.09554 37.7048 4.11773 37.7581C4.14264 37.8178 4.1674 37.8776 4.19269 37.937C4.21579 37.9913 4.23938 38.0452 4.26274 38.0992C4.28781 38.1569 4.31272 38.2147 4.33805 38.272C4.3619 38.326 4.38613 38.3795 4.41025 38.4332C4.43581 38.4901 4.46136 38.5469 4.48722 38.6033C4.51149 38.6562 4.53599 38.7086 4.56052 38.7612C4.58676 38.8174 4.61307 38.8736 4.63957 38.9293C4.66448 38.9816 4.68958 39.0335 4.71472 39.0854C4.74153 39.1405 4.76833 39.1956 4.79536 39.2503C4.82057 39.3013 4.84598 39.352 4.87142 39.4025C4.89894 39.4572 4.92658 39.5116 4.9544 39.5658C4.97995 39.6155 5.00566 39.665 5.03144 39.7143C5.05949 39.7679 5.08766 39.8211 5.11601 39.8741C5.14209 39.923 5.16829 39.9718 5.19456 40.0201C5.22296 40.0723 5.25157 40.124 5.28023 40.1755C5.30673 40.2232 5.3333 40.271 5.36007 40.3182C5.38918 40.3696 5.41851 40.4203 5.44789 40.471C5.47442 40.5168 5.50089 40.5627 5.52758 40.6079C5.53162 40.6148 5.53563 40.6219 5.53975 40.6288C5.56587 40.6731 5.59237 40.7163 5.61876 40.76C5.64499 40.8034 5.67115 40.8471 5.69758 40.89C5.72926 40.9414 5.7612 40.9918 5.79311 41.0424C5.81855 41.0827 5.84395 41.1235 5.86959 41.1633C5.90365 41.2162 5.93797 41.2678 5.97226 41.3196C5.99611 41.3557 6.01989 41.3924 6.04382 41.4279C6.08318 41.4863 6.12283 41.543 6.16245 41.5999C6.18162 41.6274 6.20067 41.6558 6.21991 41.6829C6.27847 41.7656 6.33729 41.8468 6.39634 41.9261C6.41309 41.9485 6.42995 41.9699 6.44673 41.9921C6.48971 42.0489 6.53266 42.1056 6.57583 42.1606C6.59904 42.1901 6.62237 42.2183 6.64562 42.2472C6.68244 42.2931 6.71922 42.339 6.75615 42.3834C6.78194 42.4144 6.80779 42.444 6.83369 42.4742C6.86839 42.515 6.90313 42.5558 6.93803 42.5952C6.96483 42.6255 6.99175 42.6546 7.01866 42.6841C7.05265 42.7214 7.08663 42.7587 7.12077 42.7947C7.14825 42.8238 7.17585 42.8518 7.20341 42.88C7.23709 42.9145 7.27074 42.9488 7.30442 42.9819C7.33232 43.0093 7.36022 43.0357 7.38819 43.0622C7.4218 43.0941 7.45537 43.1256 7.48905 43.1562C7.51703 43.1816 7.54508 43.2062 7.57313 43.2307C7.60673 43.26 7.64042 43.2888 7.67406 43.3168C7.70223 43.3402 7.73032 43.363 7.75852 43.3853C7.7922 43.4121 7.82585 43.4381 7.85957 43.4634C7.88773 43.4846 7.91585 43.5054 7.94402 43.5256C7.97781 43.5497 8.01157 43.5729 8.04533 43.5956C8.07342 43.6144 8.10151 43.6332 8.1296 43.651C8.16362 43.6726 8.1976 43.6929 8.23163 43.7129C8.2593 43.7292 8.28697 43.7456 8.31465 43.7609C8.34927 43.78 8.3839 43.7975 8.41853 43.8149C8.44556 43.8285 8.47259 43.8426 8.49962 43.8552C8.53496 43.8716 8.57031 43.8861 8.60562 43.9008C8.63189 43.9117 8.65809 43.9233 8.68433 43.9332C8.72111 43.9471 8.75782 43.9587 8.79452 43.9705C8.81913 43.9784 8.84371 43.9874 8.8682 43.9944C8.90892 44.0061 8.94952 44.015 8.99012 44.0241C9.01053 44.0287 9.03102 44.0346 9.05136 44.0385C9.11223 44.0501 9.17301 44.0591 9.23357 44.0648C9.35836 44.0765 9.48221 44.0854 9.60537 44.0916C9.85174 44.104 10.0952 44.1057 10.3377 44.0971C10.459 44.0928 10.58 44.086 10.7009 44.0767C10.9428 44.0581 11.1845 44.0297 11.4278 43.992C11.5494 43.9731 11.6715 43.952 11.7941 43.9286C12.53 43.7882 13.288 43.5674 14.1152 43.2831C14.2876 43.2239 14.4642 43.1609 14.6429 43.0964C14.6437 43.0961 14.6446 43.0958 14.6454 43.0955C14.8285 43.0293 15.0158 42.9602 15.2065 42.8887C15.2328 42.8788 15.2587 42.8692 15.2851 42.8593C15.4783 42.7866 15.6741 42.7123 15.8761 42.6347C16.0329 42.5744 16.1925 42.5127 16.3551 42.4496C16.6803 42.3234 17.0175 42.1917 17.3686 42.0551C17.8953 41.8503 18.453 41.6345 19.0478 41.4097C19.246 41.3348 19.4484 41.2589 19.6551 41.1822C19.95 41.0726 20.2577 40.9605 20.5715 40.8473C20.6062 40.8348 20.6404 40.8224 20.6754 40.8098C20.72 40.7938 20.7631 40.778 20.808 40.7619C20.8138 40.7598 20.8192 40.7579 20.8249 40.7558C20.8025 40.7639 20.7792 40.772 20.7569 40.78Z" fill="#D11625"/>
<path d="M20.5811 50.7292C18.915 47.7498 17.9341 44.0978 19.7098 41.1616C19.6919 41.1683 19.6729 41.1752 19.655 41.1818C19.4483 41.2586 19.246 41.3345 19.0477 41.4094C18.4529 41.6341 17.8952 41.85 17.3686 42.0548C17.0175 42.1914 16.6802 42.3231 16.355 42.4493C16.1924 42.5124 16.0328 42.5741 15.876 42.6344C15.674 42.712 15.4782 42.7863 15.285 42.859C15.2587 42.8688 15.2325 42.8786 15.2065 42.8883C15.0157 42.9598 14.8285 43.029 14.6453 43.0951C14.6447 43.0953 14.6442 43.0956 14.6436 43.0958C14.9517 43.9889 15.3075 45.0633 15.6945 46.2335C15.7692 46.4599 15.8452 46.6897 15.9222 46.9225C15.9992 47.1553 16.0773 47.3909 16.1562 47.6289C16.2351 47.8668 16.315 48.107 16.3955 48.3489C16.4359 48.4699 16.4763 48.5912 16.517 48.7129C16.5984 48.9562 16.6805 49.2009 16.7631 49.4462C16.8458 49.6916 16.929 49.9376 17.0127 50.1837C17.0546 50.3067 17.0966 50.4298 17.1386 50.5528C17.2227 50.7988 17.3073 51.0445 17.3921 51.2893C17.4769 51.5341 17.5621 51.778 17.6473 52.0204C17.7326 52.2628 17.818 52.5036 17.9034 52.7423C18.0316 53.1003 18.1598 53.4535 18.2877 53.7996C18.3729 54.0304 18.458 54.258 18.5428 54.4819C18.5853 54.5938 18.6276 54.7048 18.6698 54.8148C18.8388 55.2547 19.0064 55.6784 19.1716 56.0806C19.2542 56.2818 19.3362 56.4776 19.4176 56.6674C19.4989 56.8572 19.5795 57.0411 19.6592 57.2183C19.739 57.3956 19.8178 57.5662 19.8958 57.7296C19.9737 57.893 20.0507 58.0491 20.1266 58.1974C20.2024 58.3457 20.2772 58.4861 20.3508 58.6179C20.7186 59.2773 21.056 59.7239 21.3473 59.8784C21.3815 59.8965 21.419 59.9118 21.458 59.9257C21.4687 59.9295 21.4797 59.933 21.4907 59.9365C21.5239 59.9471 21.5585 59.9563 21.5947 59.9641C21.6032 59.9659 21.6112 59.9682 21.6199 59.9699C21.6642 59.9785 21.7109 59.985 21.7594 59.9898C21.7713 59.9909 21.7839 59.9916 21.796 59.9925C21.8358 59.9956 21.8769 59.9976 21.9193 59.9983C21.933 59.9985 21.9465 59.9989 21.9605 59.9989C22.0143 59.9989 22.0697 59.9974 22.1272 59.9938C22.1357 59.9933 22.1447 59.9923 22.1533 59.9917C22.2038 59.9881 22.2558 59.9831 22.3089 59.9769C22.3261 59.9749 22.3434 59.9729 22.3608 59.9706C22.4174 59.9633 22.4751 59.9548 22.5344 59.9448C22.5408 59.9438 22.5469 59.943 22.5533 59.9419C22.619 59.9305 22.6867 59.9171 22.7554 59.9025C22.7735 59.8987 22.7918 59.8946 22.8101 59.8906C22.8668 59.878 22.9244 59.8645 22.983 59.85C22.9984 59.8461 23.0135 59.8426 23.0291 59.8387C23.1014 59.8202 23.1749 59.8004 23.2498 59.7791C23.2652 59.7747 23.2809 59.7699 23.2965 59.7654C23.359 59.7473 23.4224 59.7281 23.4865 59.7081C23.5062 59.702 23.5257 59.6959 23.5454 59.6896C23.6242 59.6645 23.7038 59.6385 23.7847 59.6107C23.7874 59.6098 23.7902 59.6088 23.7929 59.6079C23.8716 59.5808 23.9514 59.5523 24.0318 59.5229C24.0515 59.5157 24.0713 59.5084 24.0911 59.501C24.1673 59.4728 24.2442 59.4437 24.3217 59.4135C24.3294 59.4106 24.3369 59.4077 24.3445 59.4047C24.4313 59.3708 24.5189 59.3356 24.6071 59.2993C24.6234 59.2926 24.6398 59.2858 24.6561 59.279C24.7328 59.2473 24.8098 59.2147 24.8874 59.1814C24.9013 59.1754 24.9152 59.1695 24.9292 59.1635C25.0205 59.1239 25.1123 59.0834 25.2046 59.0418C25.21 59.0394 25.2153 59.0369 25.2207 59.0345C25.3071 58.9954 25.394 58.9554 25.481 58.9146C25.4961 58.9076 25.511 58.9006 25.5261 58.8935C25.713 58.8055 25.9011 58.714 26.0893 58.6193C26.1005 58.6136 26.1117 58.608 26.1229 58.6023C26.316 58.5048 26.5092 58.4042 26.7013 58.301C26.7032 58.3 26.7049 58.299 26.7068 58.298C26.8026 58.2465 26.8981 58.1944 26.9932 58.1417C26.9972 58.1395 27.0011 58.1374 27.0051 58.1352C27.1989 58.0277 27.391 57.918 27.5804 57.8067C27.5846 57.8043 27.5889 57.8018 27.5931 57.7993C27.7838 57.6871 27.9717 57.5733 28.1555 57.4586C28.1556 57.4586 28.1557 57.4585 28.1558 57.4585C28.6199 57.1688 29.0582 56.8736 29.4515 56.5842C29.4518 56.584 29.4521 56.5838 29.4524 56.5836C25.7471 55.9089 22.4709 54.1486 20.5811 50.7292Z" fill="#B00E18"/>
<path d="M20.3184 44.7511L22.3892 50.2679C22.3892 50.2679 24.579 49.743 24.9074 49.1719C24.9074 49.1717 24.9075 49.1716 24.9076 49.1715C24.9041 49.1677 24.9009 49.164 24.8975 49.1602C24.749 48.9973 24.6092 48.8374 24.4758 48.6784C24.3869 48.8319 24.2341 48.9562 24.0357 49.0153L22.8677 49.363L21.2802 45.1339L22.1784 44.8666C22.0915 44.6806 22.0028 44.4884 21.9108 44.2861C21.9019 44.2666 21.8935 44.2486 21.8846 44.229C21.6906 44.2953 20.3184 44.7511 20.3184 44.7511Z" fill="#A00F14"/>
</svg>
